<svg id="Layer_1" data-name="Layer 1" xmlns="http://www.w3.org/2000/svg" viewBox="0 0 2000 2000"><defs><style>.cls-1{fill:#01a96e;}.cls-2{fill:#696969;}</style></defs><title>Logo - Amra Shunbo</title><path class="cls-1" d="M1412.68,1615.91c-72.83-21.4-139.57-52.34-198.94-101,4.46-4.17,8.32-8.43,12.81-11.87q37.11-28.42,74.5-56.47c18.77-14.06,37.79-27.79,56.61-41.79,1.34-1,2-3,2.9-4.46-1.71-.52-3.42-1.5-5.13-1.5q-77.77-.09-155.53,0h-10.33c1.66,6.54,3.44,12.36,4.58,18.3,3.21,16.71,0,32.8-5.92,48.35-5.75,15.21-12.5,30-18.36,45.2-9.41,24.36-15.4,49.51-14.32,75.82.71,17.34,5.07,33.63,18,46.35,9.56,9.43,21.18,13.74,35.52,13.54-.82-1.79-1.33-2.93-1.87-4.06-1.64-3.46-3.8-6.77-4.86-10.4-5.28-18.15,6.92-31.31,25.44-27.43a59.66,59.66,0,0,1,34.05,20.39c7.74,9.13,8.07,18.86.42,28.14-11.06,13.43-26.15,19.59-43,19.95-29,.62-53.82-11.27-75.62-29.45-19-15.84-32-35.76-35.42-60.73-2.18-15.7-.78-31.41,1.88-47,4.8-28.16,18-52.73,31.89-77.17a341.55,341.55,0,0,0,18.48-38.76c2.07-5,1.5-11.23,1.75-16.91.13-2.87-1.71-4.21-4.78-4.2q-45.19.11-90.38,0c-4.26,0-4.27,2.37-4.26,5.42,0,21.72,0,43.44,0,65.16q0,69.1,0,138.19c0,2.05,0,4.11,0,6.76a24.79,24.79,0,0,1-4.63-.84c-11.9-5-23.94-9.64-35.59-15.16-6.15-2.92-9.1-8.13-8.74-15.76.67-14.51.28-29.07.09-43.6a11.37,11.37,0,0,0-2.14-6.68c-12.62-15.23-25.21-30.5-38.35-45.28a116.12,116.12,0,0,0-17.7-15.54c-7.14-5.31-9.4-4.94-13.28,3.2-7.22,15.15-13.81,30.6-20.26,46.09-4.1,9.84-7.54,20-11.14,30-2.44,6.8-.17,12.45,5.12,16.88,5.71,4.78,12.33,5.35,19.27,3.24.87-.27,1.53-1.24,2.83-2.35-1.65-1.27-3-2.27-4.29-3.29-6.93-5.47-9-10.73-5.87-18.88,5.81-15.21,17.21-24.8,33-27.81,14.35-2.74,27.7,6.75,32.62,21.46,8.47,25.33-4,49.46-31,57.39-26.64,7.85-53.15,5.77-78.3-6-22.24-10.44-30.93-28.54-27.65-52.91,2.06-15.33,8.18-29.24,13.77-43.38,6.75-17.09,13.92-34,20.25-51.26,4-10.77,10.79-15.26,22.28-16.19,23.32-1.89,42.78,5.88,59.27,21.47,13.2,12.48,25.56,25.85,38.29,38.82.59.6,1.14,1.23,2.48,2.69a30.82,30.82,0,0,0,.78-4.46c0-27.5-.09-55,.09-82.49,0-4.83-2.51-4.82-6-4.82-56.57.05-113.15,0-169.72.17-4.86,0-8.26-1.25-11.15-5.11-3.33-4.43-7.1-8.53-11.4-13.63,3.16-.16,5.2-.36,7.23-.36q120.85.08,241.7.2,46.75,0,93.5.05l238,0c10.32,0,20.64-.1,31,.07,14.38.24,23.64,8.27,30.15,20.31.78,1.44,1.6,2.86,2.4,4.3l1.47-.29v-56.37c3.35.57,5.88.54,8,1.45,10.58,4.56,21.39,8.76,31.41,14.36,4.55,2.54,7.34,8.15,11.19,12.1,1.64,1.69,3.87,3.6,6,3.85,5,.58,10.19-.21,15.2.39a14.38,14.38,0,0,1,8,3.71c4.27,4.27,7.87,9.22,12.46,14.76-12.38,0-23.69.3-35-.13-5.51-.21-6.7,1.74-6.69,6.89q.31,101.67.27,203.35c0,1.72,0,3.45,0,5.5a8,8,0,0,1-2.36,0c-12.14-4.87-24.52-9.25-36.31-14.86-8-3.8-12.08-10.45-12-20.3q.6-54.9-.22-109.81a225.93,225.93,0,0,0-3.92-36.4c-2-11-7.24-20.82-16.58-27.78-8.21-6.12-17.47-7.46-28.07-5.92Zm-52.47-43.22v-95.78l-1.29-.81-71.36,57.47C1311.6,1548.28,1332.13,1566.65,1360.21,1572.69ZM739.65,1424.8c3.63-2.06,5.72-1.43,8.41,1.56,12.83,14.27,13.7,30.37,7.8,47.61-7.66,22.4-22.41,36.33-46.36,40.47-11.81,2-23.43,5.57-34.88,9.24-7.56,2.42-11.38,8.42-10.93,16.65.14,2.62.19,5.26.51,7.86,2.1,17.26,13.68,28.45,30.88,29.42,7.13.4,14.31-.13,21.46,0,13.44.22,23-5.86,29.5-17.42,3-5.28,6.34-10.34,9.52-15.5,10.25,6.42,13,10.4,10,17.9a49,49,0,0,1-9.77,15.26c-9.55,10.15-22.06,15.31-35.49,18-22.54,4.58-45,2-67.32-1.72-26.28-4.4-52.19-10.24-76.31-22.2-22.22-11-41.12-25.35-50.35-49.59a31.14,31.14,0,0,0-3.76-6.3c-10.94-15.86-26.22-26-43.89-32.8-4.74-1.83-9.73-3-14.6-4.51l-1.48,1.36c1.51,7.28,2.14,14.88,4.68,21.78,12.22,33.17,34.68,58.16,64.52,76.29,24.64,15,52.23,22.55,80.21,28.69,22.64,5,45.62,6.95,68.7,8,29.87,1.32,59.47-.41,88.39-8.81,18.09-5.26,33.63-13.93,45-29.82,9.34-13.1,4.51-36.09-10.24-43.37-8.5-4.19-18-6.39-27-9.48-1.17-.4-2.36-.74-3.47-1.09,4.12-5.3,8.39-9.78,11.48-15a171.86,171.86,0,0,0,18.58-45.52c5.77-22.42-.9-40.68-18-55.58-12.83-11.19-27.77-18.83-43.45-25.08-1.44-.57-4.06.23-5.41,1.3a166.56,166.56,0,0,0-14.19,12.48c-3.36,3.37-5.86,3.91-9.35.17a38.88,38.88,0,0,0-8.73-6.67c-20.32-12-41.8-10.73-63.56-5.18a6.64,6.64,0,0,0-3.85,2.55c-4.39,7.52-8.55,15.17-12.72,22.81a47.76,47.76,0,0,0-1.92,4.89c-2.25-4.34-3.68-7.93-5.79-11-9.59-14.16-21.5-23.56-40.1-23.26-41.33.68-82.67.36-124,.45h-5.85c4.87,5.89,8.9,11.18,13.42,16a10.35,10.35,0,0,0,6.56,3c11,.31,22.06.13,33.1.14,18.39,0,36.78-.13,55.17.15,8.07.12,15.46,2.64,18.82,10.88a31.31,31.31,0,0,1,.51,22.6c-1.8,5.22-5.37,8.69-10.59,10-1.6.39-4.79-.62-5.33-1.85-3.1-7-8.28-9.56-15.6-8.64-3.12.39-6.27.53-9.37,1-15,2.33-28.24,8-37.78,20.43a16.53,16.53,0,0,0-2.7,16.31,39.42,39.42,0,0,0,14.66,20,28.3,28.3,0,0,0,13.89,4.84,249.69,249.69,0,0,0,29.4-.24c16.81-.91,32.43-5.35,45.24-17.08a25.52,25.52,0,0,1,3.55-2.34c1.78,4.71,2.83,9.21,5.07,13,5,8.51,13.1,13.4,22,17.11,12.35,5.17,25.46,6.13,38.59,6.7,15.83.69,31.13-1.59,44.92-10,12.88-7.88,21.7-18.68,23.26-34.26.39-3.9.3-8-3.91-10.06-9.58-4.65-18.94-10.09-29-13.36-13.84-4.5-26.34-.41-36.21,10.36-8.74,9.55-8.16,17.31,1.37,25.81,2.16,1.93,4.28,3.92,6.42,5.89-5,5.08-13.56,5.46-20.69,1.34-5.2-3-7.23-8.53-5.23-15.64,3.32-11.78,6.39-23.68,10.56-35.17,3.31-9.14,7.94-17.83,12.31-26.56,2.11-4.21,5.54-5.49,10.53-4.12,8.52,2.34,15.58,6.68,20.18,14.07,3.94,6.33,6.89,13.28,10.61,20.62C720,1435.4,729.94,1430.31,739.65,1424.8Z"/><path class="cls-2" d="M1520.76,1299.35c-15.94-4.4-31-8.83-43.66-18.84a17.79,17.79,0,0,1-7.18-15c.09-37.83-.05-75.66-.16-113.49,0-15.11-1-30.12-6.93-44.3-6.63-15.84-17.83-25.06-35.75-25-4.61,0-6.32.92-6.3,6q.33,102.19.25,204.39c0,1.91,0,3.81,0,6.8-72.47-21.29-139.39-51.77-198.27-100.28,2-2.22,3.62-4.67,5.82-6.45,13.19-10.68,26.26-21.54,39.84-31.71,32.09-24,64.45-47.69,96.64-71.6,1.9-1.41,3.2-3.61,4.78-5.45l-1.17-1.82c-8.88,0-17.76,0-26.64,0q-52.54.15-105.07.31c-16.64,0-33.28.28-49.91-.16-5.39-.14-6.43,1.57-6.4,6.45q.41,78.54.49,157.09.06,23.38,0,46.76c0,1.89,0,3.78,0,6.55-16.79-4.48-32.88-8.45-45.71-20a14.8,14.8,0,0,1-5.26-12.07c.28-7.87.15-15.76-.15-23.64a11.17,11.17,0,0,0-2.21-6.59,128.44,128.44,0,0,0-34.72-27.69,23,23,0,0,0-2.67-.95c-.54,4.89-.73,9.51-1.61,14-1.44,7.35-2.62,14.87-5.14,21.88-7.53,20.93-23.34,31.55-45,32.7-23.87,1.27-45.45-6.07-63.49-21.72-16-13.92-19.83-32.24-14-52.15,5.9-20.29,20.55-31.84,40.89-35.43,8.63-1.52,17.73-.43,26.62-.45,2.93,0,5.86.24,9.64.41-.82-2.64-1.27-4.63-2-6.48-7.37-17.58-15-35-22.11-52.73-2.85-7.11-4.7-14.64-6.69-22.06-.77-2.88-1.95-3.91-5-3.89-27.84.16-55.69.27-83.53.06-5.16,0-6.46,1.6-6.45,6.56q.22,100.62.12,201.23c0,2.42,0,4.84,0,7.73-1.74-.18-3,0-4-.45-11.93-4.89-24.07-9.36-35.65-15-7.43-3.61-11-9.84-10.88-19.16.52-31.86.06-63.73-.07-95.6q-.08-19.44-.4-38.87a13.81,13.81,0,0,0-1.22-5.54c-9.41-19.82-24.47-33.35-45.33-40.31-.28-.09-.66.11-1.56.28v215.32c-17.06-5.09-34-8.62-46.34-21.71-2.75-2.92-3.83-8.13-4.2-12.41-.67-7.83-.12-15.75-.33-23.63-.05-2-.47-4.47-1.72-5.75-9.28-9.52-18.81-18.8-28.29-28.13-.33-.32-.94-.36-2-.73-.71,1.75-1.44,3.45-2.08,5.18-5.62,15.2-15.59,26-29.68,34.57-29.54,18-61.93,20.79-95,20.84-31.57,0-61.87-6.27-90.31-20.3-30.8-15.2-55.16-37.77-75.51-66.46,32.1-.47,62.1,1.16,84.09,28.39,12.64,15.65,28.58,27.76,48.38,32.78,30.59,7.76,59.73,4.44,84.5-16.81,28.44-24.41,38.75-83.26-3.19-115.56-8.84-6.81-18.52-12.55-27.85-18.73a21.38,21.38,0,0,0-3.65-1.48c-.29,1.75-.63,3.06-.7,4.39-.46,8.56-.71,17.14-1.36,25.69-.28,3.63,1,5.09,4.37,6.39,8.45,3.26,17,6.59,24.9,10.93,9,4.93,10.42,10,4.94,18.45a230,230,0,0,1-19.23,25.38c-5.29,6.13-12.54,8.6-20.87,6.91-14.57-3-29.16-5.76-43.74-8.67-1.51-.3-3-.91-4.95-1.53q1-20.68,1.92-41.32a55.71,55.71,0,0,1,.52-6.8c2.71-15.72-5.15-26.19-17.29-34.28-10.9-7.27-22.38-12.74-36.19-11.74-9.06.65-18.21.19-27.31.06-1.8,0-4.22-.27-5.28-1.41-4.95-5.35-9.52-11-15.07-17.62,4,0,6.72,0,9.44,0,21.36.16,42.72.1,64.07.6,11.34.26,20.35,5.76,27.28,14.67a33.89,33.89,0,0,0,2.54,2.4c.4-6.2,1-11.28,1-16.36-.05-4.62,1.71-6.28,6.24-5.8,10.43,1.12,20.87,2,31.31,3,5.21.5,10.42,1.4,15.64,1.41,62.52.1,125.05.37,187.57-.09,20.25-.15,35.93,7.3,48.14,23,.71.92,1.57,1.73,3.52,3.86v-59.21c5.62,1.62,10.25,2.49,14.49,4.28,8,3.41,16.34,6.62,23.61,11.33,5,3.27,8.46,9,12.79,13.47,1.4,1.44,3.37,3.27,5.1,3.29,28.36.25,56.73.18,85.09.36,3.26,0,4.25-1.29,4.71-4.15,3.92-24.57,18.77-42.13,37.43-56.91,2.69-2.14,7.91-2.87,11.31-1.94,5.88,1.62,11.25,5.06,17.29,8a35.57,35.57,0,0,1-2.14,3.09c-21.43,23.14-23.91,49-12.81,77.85,10.05,26.08,19.46,52.46,27.6,79.18,2.53,8.31,6.22,12.74,13.46,16.46,8.5,4.37,16.28,10.14,24.35,15.35,1.69,1.09,3.26,2.37,5.75,4.21.27-2.82.57-4.47.57-6.12q0-54.91,0-109.81c0-6.69,0-6.56-6.68-6.53-9.1,0-18.25.38-27.3-.4-11.84-1-21.67-6.1-28.16-17.48,2.26-.12,3.93-.27,5.6-.28q52.54-.14,105.08-.23,115-.08,230.09-.08c9.09,0,18.19-.18,27.27.13,14,.47,23.34,8.24,29.68,20.19.76,1.43,1.48,2.88,2.22,4.32l1.51-.34v-56.49c2.55.41,4.3.35,5.77,1,11.1,4.67,22.47,8.84,33,14.5,4.75,2.54,8.37,7.8,11.55,12.47,1.94,2.85,3.72,4.23,7,4.2,5.08-.06,10.16-.11,15.23.09,1.82.07,4.25.28,5.32,1.43,4.84,5.2,9.29,10.76,14.57,17h-41.3v216.45Zm-844-216.3c2.12,1.62,3.32,2.42,4.4,3.37,11,9.69,23,18.52,32.71,29.33,14.86,16.46,25.65,35.65,22.5,58.88-1.34,9.9,1.29,15.28,9.66,19.5,5.35,2.69,10.16,6.45,16.13,10.32.22-2.92.47-4.57.46-6.22-.28-36.58-.66-73.16-.81-109.75,0-4.42-1.5-5.57-5.77-5.53-21.7.19-43.41.09-65.12.09Zm692.07,76.64-72.2,58.17c23,16.18,46,29.83,72.2,39.66Zm-325.56,46.11c0-2.72.38-4.59-.12-6.17-.39-1.23-1.91-3-2.91-3-22.85.18-39,16.06-35.67,41.22,1,7.4,5.49,11.15,12.94,12.44,8.56,1.49,12.61-.17,16.83-7.1C1041.51,1231.39,1042.13,1218.05,1043.24,1205.81Zm240.55,99.92c5.76,19.19,14,25.36,33.77,25.39,12.75,0,21.9-6.41,24.9-17.5,3.41-12.63-1.62-25.9-12.58-31.59-13.7-7.12-27.89-7.36-42-1.14-3.85,1.7-7.12,4.73-9.61,6.43C1280.48,1294.61,1282.13,1300.17,1283.79,1305.73Z"/><path class="cls-1" d="M969.88,979.78c-4.11-8.52-8.64-16.87-12.19-25.61A160,160,0,0,1,950,930c-1.82-7.88-2-16.13-3.61-24.07-2.23-10.91-.35-21.5,1.42-32.13a177.11,177.11,0,0,1,13.67-45.19c1.44-3.13,3.12-6.14,4.68-9.21,2.81-5.55,5.09-11.46,8.53-16.58a158.1,158.1,0,0,1,16.25-21.06,173.32,173.32,0,0,1,46-34.39c8.85-4.6,18.21-8.22,27-12.87,15.61-8.21,29.47-19,42.06-31.24,7.34-7.14,14.51-14.69,20.43-23,7.58-10.64,14.09-22.09,20.57-33.46,8-14,12.55-29.36,15.23-45.13,3.23-19,5.81-38.14,3.09-57.45-1.65-11.73-3.12-23.61-6.26-35a216.11,216.11,0,0,0-13.1-35,178.63,178.63,0,0,0-31.76-46.16c-16.79-17.74-35.69-33.09-57.68-43.65a224,224,0,0,0-45.33-16c-18.07-4.26-36.82-6.19-55.47-4.23A206.94,206.94,0,0,0,896.43,379c-31.58,13.33-58,33.24-78.81,60.41C799.74,462.79,787.32,489,779.5,517.3c-6.35,23-10.55,46.36-10.56,70.32,0,10-.73,20.17.38,30.09a402.51,402.51,0,0,0,7.49,46.21c3.2,13.78,8.37,27.1,12.8,40.59.81,2.48,2.21,4.77,2.65,7.68-6.51-9-13.48-17.71-19.43-27.07a217.88,217.88,0,0,1-23.66-51,242,242,0,0,1-10.37-92.74,234.61,234.61,0,0,1,52.44-128.82c15.42-18.4,32.57-34.64,52.83-47.58a238.16,238.16,0,0,1,59.76-27.68c21.9-6.6,44.13-10.62,67-10.23a242.69,242.69,0,0,1,49.3,5.91c17.8,4,35.06,9.45,51.35,17.48a232.6,232.6,0,0,1,51.49,34c14.53,12.82,27.7,26.82,38.47,42.76,8.45,12.51,15.28,26.12,22.54,39.41,8.79,16.11,16.09,32.87,19.32,51.08,1.06,6,1.51,12.1,2.08,18.16,1.52,16,7.89,30.08,16.9,43.15,11.35,16.47,22.4,33.16,34.09,49.39,9.55,13.26,6.21,20.57-4.13,30-5.08,4.61-10.64,8.69-15.7,13.32-6.18,5.65-6.77,11.8-1.32,18.19s3.71,12.45-1,18.18a32,32,0,0,1-6.84,5.69c-6.17,4.24-6.19,7.22-1.89,13.51a29.49,29.49,0,0,1,4.5,12.81,12.56,12.56,0,0,1-3,8.95c-9.67,10.32-8.19,21.72-3.8,33.33,2.72,7.19,5.74,14.08,5.21,22.1-.6,9-5.42,16.61-14.15,19a80.81,80.81,0,0,1-19.81,3.14c-15,.22-30.08-.72-45.12-.64-28.38.15-56.15,4.13-82.81,14.37a146.79,146.79,0,0,0-55.42,37.54c-12.8,13.72-22,29.51-29,46.73-3.44,8.53-6.8,17.24-8.77,26.18-1.52,6.91-.83,14.31-1.08,21.5-.08,2.28,0,4.56,0,6.83Z"/><path class="cls-1" d="M941,529.67c1-24.21,9-40.33,27.31-51.05,6.82-4,13.77-7.71,21.42-7,8.75.82,18,2.29,25.82,6,15.59,7.33,25.26,20.3,28.35,37.5,4.05,22.6-3.36,40.75-21.79,54.51-6.89,5.14-14.69,7.66-23,8.61-22.4,2.56-42.84-8.22-52.55-28.68C943.13,542.39,942.16,534.1,941,529.67Z"/><path class="cls-1" d="M976,594.93c14,1.1,29.28,12.81,29.07,33.19-.18,17.54-13.38,31-30.59,30.74-13.53-.21-29.77-11.77-29.43-32.92C945.31,609.43,960.64,595.06,976,594.93Z"/><path class="cls-1" d="M881.11,703.66c-.05-15.72,11.23-27.33,26.48-27.24,14.12.08,26.1,12.28,26.06,26.54,0,14.42-11.75,25.62-26.49,26C892,729.38,880.15,716.69,881.11,703.66Z"/><path class="cls-1" d="M869.74,567.84c-.78,15.06-7.91,21.95-21.51,22.39a20.67,20.67,0,0,1-21.31-20.88c.05-12.58,8.83-21.6,21-21.63C860.79,547.68,869.73,555.95,869.74,567.84Z"/><path class="cls-2" d="M1064.88,518.91a20.17,20.17,0,0,1,20.24-20.37,20.49,20.49,0,1,1-.15,41C1074,539.61,1064.89,530.24,1064.88,518.91Z"/><path class="cls-2" d="M949.83,434.75a18.17,18.17,0,0,1,19.08-18.29,18.58,18.58,0,0,1,17.8,18.8c-.15,9.64-9.56,20.64-18,19.57C959,453.61,949.42,447.58,949.83,434.75Z"/><path class="cls-1" d="M931.21,502.44c0,11.52-7,19.09-17.81,19.23-10.23.13-19-8.47-18.74-18.67.38-12.53,7.64-18.11,17.81-18.13C923.1,484.84,931.27,490.29,931.21,502.44Z"/><path class="cls-1" d="M1063.52,440.28c1,7.95-5.7,17.18-15.41,17.19-11.27,0-18.39-7.25-17.95-17.15.45-10.07,7-17.56,16.49-17.28C1056.24,423.33,1064.67,430.22,1063.52,440.28Z"/><path class="cls-2" d="M898.66,610.78a16.16,16.16,0,0,1,16.5,16.65,17.55,17.55,0,0,1-17.25,17.45c-8.17.22-16.62-8.06-16.43-16.11C881.73,618.39,889,610.81,898.66,610.78Z"/><path class="cls-2" d="M843.68,618c8.08,0,13.57,5.34,13.68,13.39a13.38,13.38,0,0,1-13.63,13.56c-7.72-.06-13.3-5.89-13.28-13.88S835.57,618,843.68,618Z"/><path class="cls-2" d="M1046.61,601.78c-7.61,1-13.35-5.26-13.44-12.92-.09-7,6-12.76,13-12.73,7.31,0,12.83,5.85,12.73,13.4S1054.09,601.79,1046.61,601.78Z"/><path class="cls-2" d="M923.2,570.57a12.66,12.66,0,0,1-13.26,13.23c-6.42-.08-12.2-6.05-12.46-12.87A12.87,12.87,0,0,1,910,557.81,12.45,12.45,0,0,1,923.2,570.57Z"/><path class="cls-2" d="M921.74,440.05c0,6.58-5.12,12-11.32,11.93s-11.56-5.71-11.46-12c.12-7.4,4.58-12.13,11.48-12.15S921.74,432.59,921.74,440.05Z"/><path class="cls-2" d="M851,514a10.44,10.44,0,0,1-11-10.4c-.14-6.46,4.29-11.5,10.22-11.63,7-.16,11.93,4.43,11.9,11.07A11,11,0,0,1,851,514Z"/></svg>