<svg xmlns="http://www.w3.org/2000/svg" preserveAspectRatio="xMidYMid meet" width="1600" height="900" viewBox="0 0 1600 900"><defs><style>.cls-1{fill:#131d28;}.cls-2{fill:#1f3146;}.cls-3{fill:#2e3f53;}.cls-4{fill:#fe6b71;}.cls-5{fill:#f5b539;}.cls-6,.cls-9{fill:none;}.cls-6,.cls-8,.cls-9{stroke:#feca51;stroke-linecap:round;stroke-linejoin:round;}.cls-7{fill:#ac9f41;}.cls-8{fill:#1a2e35;}.cls-9{stroke-width:2px;}.cls-10{fill:#feaead;}</style></defs><title>bg2</title><g id="BACKGROUND"><rect class="cls-1" width="1600" height="900"/></g><g id="OBJECTS"><path class="cls-2" d="M485.2046,0c-8.042,4.95-15.554,9.252-19.5635,10.8-11.3371,4.4279-46.7541,14.4-56.6626,57.564-9.9315,43.182-25.5316,70.848-60.9487,99.63-35.44,28.782-113.3713-21.042-155.8856,7.758-42.5142,28.782-25.5316,70.848-25.5316,91.872s-60.9256,5.526-80.7656,7.74c-19.84,2.232-76.5256,25.47-56.6856,71.964A73.493,73.493,0,0,0,52.78,377.46c4.0555,6.768,4.5625,12.132-2.7882,15.822-14.9318,7.542-32.5136-8.244-43.0673,13.05-10.5306,21.294,30.7623,29.538,21.983,41.886-8.8024,12.366-26.3612,6.174-19.3331,21.294,5.5534,11.934,24.2182,11.412,31.7993,10.656,2.0048-.18,3.226-.396,3.226-.396s3.8312-24.3468,17.7689-38.42l.1816.35s.0154,1.5925,6.0057,7.2077,15.575,5.6153,15.575,5.6153-.5992-5.6153-.5992-10.7625a4.7611,4.7611,0,0,1,.07-.8765l1.2007.1212c1.2342,1.733,2.9228,6.1178,2.9228,7.3064a38.4136,38.4136,0,0,0,.5991,5.1472l16.773-5.6152a78.0517,78.0517,0,0,1,9.5845-2.34l-5.3914,7.0191a98.9748,98.9748,0,0,1,17.3721-1.8718c8.3863,0,28.7535.936,31.7487.4678s-6.5894,6.0833-6.5894,6.0833-2.3962,2.34,28.7536,3.7435,50.9181-1.4039,53.9132,5.6152-28.1548,16.8457-29.9519,38.3706-8.666,35.0952-2.6758,36.967c2.5278.79,5.3259-.8572,9.8446-3.5008,9.2707,1.5579,43.0641.5452,52.102-2.3258,18.1809-5.778,23.573-7.812,24.1721-8.046l.0461-.018.023.018c.1844.45,3.5717,8.424,2.9956,21.294-.5991,13.23-8.48,22.68-15.1392,29.79-6.6594,7.092-44.8186,2.844-50.28,2.358-5.4611-.468-7.2585,9.486-13.3188,17.514-6.0833,8.028-20.4806,12.1289-20.4806,12.1289s42.3023,10.1011,59.2619,27.1291c16.9366,17.028-16.96,26.496-4.24,48.726A45.6913,45.6913,0,0,0,260.167,703.35c14.9088,10.674,34.818,13.734,44.22,11.628,2.88-.648,6.0372-2.52,9.2863-5.166a77.0582,77.0582,0,0,0,7.5811-7.218c5.369-5.742,10.7611-12.618,15.6232-18.846a.7947.7947,0,0,1,.1152-.126c.8756-1.134,1.7282-2.25,2.6038-3.33,2.12-2.736,4.1247-5.256,5.9451-7.398,7.8807-9.234,25.186-18.198,42.4682-21.258h.023a60.9684,60.9684,0,0,1,19.4022-.54,65.93,65.93,0,0,1,20.1856,6.75,99.613,99.613,0,0,1,37.2375,33.966c12.72,19.872,21.2,61.488,21.2,61.488s.4839.612,1.2673,1.53a44.7173,44.7173,0,0,0,5.1156,5.094,9.7549,9.7549,0,0,0,4.4934,2.358c4.2629.468,21.1534,5.706,21.1534,5.706,5.5994.288,10.4385,1.044,15.4388,1.314,13.964.792,29.1724-2.106,65.6033-29.07,29.1033-21.528,35.1175-14.076,71.9862,19.134,36.8457,33.21,67.0089,26.262,137.866,25.146,69.1289-1.08,65.05,60.084,80.6043,115.488H1600V0Z"/><path class="cls-3" d="M88.3246,455.4608s77.3444-63.17,111.93-63.17,65.9538,10.0527,84.4529-3.1415,24.13-33.9275,51.4762-40.21,45.1377-1.4142,45.1377-1.4142-38.7032-1.7273-58.0068,27.174-32.9768,52.148-58.7148,54.0328-78.8228-4.398-106.1695,6.2829S88.3246,455.4608,88.3246,455.4608Z"/><path class="cls-3" d="M1493.795,767.646c-66.3407-26.568-164.9646,22.572-244.9006,43.83-79.913,21.258-188.7532-54.46-244.8775-88.992-40.1033-24.6748-85.0286-30.564-192.1553-7.974-107.15,22.572-108.8319-7.974-122.45-26.568-6.2956-8.61-18.071-14.6511-32.2728-17.4762a162.1879,162.1879,0,0,1,24.7064-3.4585c14.421-.8388,28.8648.8161,41.128,6.0321,3.2106,1.4512,6.49,2.9182,9.6836,4.4248l4.6374,2.4133,2.3225,1.2056,2.202,1.3072a122.5391,122.5391,0,0,1,16.67,11.5669c1.4662,1.1272,2.7207,2.2027,4.3613,3.37l2.405,1.7278,2.8445,1.689a21.3131,21.3131,0,0,0,3.1716,1.514,20.293,20.293,0,0,0,3.4373,1.24l3.6033.9038c1.1844.1984,2.3531.3024,3.5322.4455a49.54,49.54,0,0,0,6.7827.29c2.2706.08,4.26-.191,6.381-.3,1.04-.0792,2.1034-.1321,3.1233-.2358l3.0126-.3656c1.9995-.2549,4.0339-.4664,6.0011-.76,3.9159-.6418,7.81-1.1716,11.7376-1.9085q5.8942-1.0519,11.65-2.3859c7.6839-1.7473,15.201-3.7746,22.602-5.9346,14.8037-4.3182,29.1477-9.1868,43.5652-13.5466,14.4025-4.3234,28.9549-8.2676,43.8176-9.9992a116.0434,116.0434,0,0,1,22.23-.5476,88.7417,88.7417,0,0,1,10.8493,1.5545,69.2485,69.2485,0,0,1,10.2645,2.9454,140.0887,140.0887,0,0,1,19.3752,9.2134c6.2424,3.4906,12.3287,7.2229,18.3319,11.0607,23.972,15.411,47.02,32.0828,72.5941,46.3624,6.3746,3.584,12.9777,6.9336,19.7095,10.1169a224.7729,224.7729,0,0,0,21.0214,8.4451,151.0379,151.0379,0,0,0,22.5618,5.6349,107.31,107.31,0,0,0,23.6032,1.263c15.636-.5708,31.3324-2.2687,46.22-6.1713,3.76-.8778,7.33-2.1749,10.9355-3.364l5.2209-2.1145c1.7118-.7428,3.3348-1.61,5.0036-2.4078,1.6348-.841,3.15-1.8205,4.7279-2.7225,1.436-1.04,2.9912-1.9806,4.3026-3.1185a26.1571,26.1571,0,0,0,6.7414-7.4315,26.5183,26.5183,0,0,1-6.9461,7.2731c-1.3362,1.1045-2.9147,2.0109-4.3682,3.0135-1.5974.8662-3.1267,1.8072-4.7741,2.61-1.6823.76-3.3135,1.587-5.0325,2.29L1237.854,755.6c-3.6145,1.1095-7.1774,2.3242-10.9325,3.1219-14.8548,3.5786-30.44,4.9612-45.95,5.2285a103.6959,103.6959,0,0,1-22.9024-1.6625,145.9352,145.9352,0,0,1-21.777-5.9054,217.8019,217.8019,0,0,1-20.32-8.6654c-6.5168-3.2566-12.9069-6.6739-19.0877-10.3327-24.8131-14.5853-47.16-31.5625-70.8707-47.5929-5.9494-3.9978-12.0224-7.9181-18.3551-11.6466A146.02,146.02,0,0,0,987.3971,667.99a78.539,78.539,0,0,0-11.5641-3.57,98.7811,98.7811,0,0,0-12.092-1.9729,127.4319,127.4319,0,0,0-24.4551.1171c-16.1217,1.5718-31.3877,5.4283-46.2087,9.5449-14.8265,4.1618-29.2742,8.7374-43.8459,12.6686-7.2814,1.9672-14.5876,3.7787-21.94,5.2979-7.34,1.5613-14.7332,2.6433-22.2918,3.6418-1.8727.2426-3.7152.3924-5.5727.5947l-2.78.2862c-.9164.0754-1.8044.0952-2.7073.1471-1.7717.0531-3.6624.2745-5.2978.1535a33.68,33.68,0,0,1-4.8743-.2925c-.7422-.1112-1.5213-.1759-2.236-.3028-.6462-.1978-1.2923-.3807-1.9451-.55a8.08,8.08,0,0,1-1.83-.7142,9.2873,9.2873,0,0,1-1.7821-.8971l-1.7847-1.107-1.8524-1.4089c-1.2257-.9016-2.5769-2.1011-3.86-3.1358a134.1467,134.1467,0,0,0-17.8972-13.0291l-2.415-1.5019-2.5059-1.3777-5.0208-2.751c-3.4279-1.7136-6.8719-3.3465-10.3663-5.0081a95.6169,95.6169,0,0,0-24.1226-7.006,130.9691,130.9691,0,0,0-25.2408-1.3885c-16.7305.6408-32.7917,3.82-48.0471,8.1452-7.64,2.1692-15.0671,4.6975-22.3512,7.4489-3.6332,1.3907-7.2325,2.835-10.7882,4.36-3.6,1.5532-6.9731,3.0668-10.6989,4.9314l.2424.2808c-31.1409,11.9137-64.6811,27.4988-64.6811,27.4988-52.9066,5.148-33.0666-44.802-86.0194-74.106-52.93-29.286-108.0945,36.18-125.7224,15.498-17.6509-20.664,15.4388-41.328,17.6279-74.088.9678-14.238-6.9359-24.48-16.1761-31.518a83.2,83.2,0,0,0-26.246-12.852s-3.2071-.8662-7.62-1.6006c-16.4165-5.1289-36.1493-8.8936-35.7221-16.9077.571-10.7052,33.69-16.0576,19.4146-36.13-12.6651-17.8079-43.7447-17.3565-59.3706-14.2252-6.0129-3.7546-18.7621-10.5012-39.2867-15.6181-30.0049-7.48-48.5063.5028-56.1732,8.9784,0,0,34.4676-1.9969,34.4676,4.486s.6384,24.4355,19.7918,30.42c11.7357,3.6665,22.0071.96,33.349-1.821-7.7154,1.9184-16.7156,6.8477-18.3789,13.3821-1.9719,7.7468-1.9213,21.0427,2,28.3863,4.567,8.5522,19.5468,15.1209,29.214,19.6548,5.5916,2.6224,11.1927,5.5866,14.656,9.9039s4.2554,10.3225.2572,14.3478c-4.2818,4.3109-12.1012,5.3716-17.5737,8.5157a36.1211,36.1211,0,0,0-13.729,13.87c-6.85,12.6906-.7637,27.3761,13.98,35.0891,9.2011,4.8133,20.6663,6.3927,29.957,11.1a8.9466,8.9466,0,0,1,3.483,2.6226c4.8093,7.2081-12.9626,17.1488-18.0883,21.4254-15.3724,12.8263-19.0455,33.6645-16.3278,50.4762a36.6318,36.6318,0,0,0,11.95,22.122c7.2659,6.32,17.847,10.1386,28.6906,10.7739,10.9636.6422,22.486-1.8261,31.3691-6.8879a35.8443,35.8443,0,0,0,10.8792-8.9845c.6116-.8158,1.4137-3.3043,2.297-3.8564,0,0-22.216,15.4946-34.1174-4.9582-5.23-8.9874-3.87-17.3749-.7045-23.9559,1.1174.9474,2.2622,1.8625,3.4539,2.7128,14.9088,10.674,34.818,13.734,44.22,11.628,2.88-.648,6.0372-2.52,9.2863-5.166a77.0582,77.0582,0,0,0,7.5811-7.218c5.369-5.742,10.7611-12.618,15.6232-18.846a.7947.7947,0,0,1,.1152-.126c.8756-1.134,1.7282-2.25,2.6038-3.33,2.12-2.736,4.1247-5.256,5.9451-7.398,7.8807-9.234,25.186-18.198,42.4912-21.258a60.9684,60.9684,0,0,1,19.4022-.54,65.93,65.93,0,0,1,20.1856,6.75,99.613,99.613,0,0,1,37.2375,33.966c12.72,19.872,21.2,61.488,21.2,61.488s.4839.612,1.2673,1.53a44.7173,44.7173,0,0,0,5.1156,5.094,9.7549,9.7549,0,0,0,4.4934,2.358c4.2629.468,21.1534,5.706,21.1534,5.706,10.903.5726,18.94,2.8759,30.8575.0479q.2194-.0519.44-.106c.447-.11.8979-.2249,1.3563-.35.1387-.0376.2811-.08.421-.1193q1.2194-.3416,2.4974-.7584c.2375-.0772.4719-.1508.7124-.2322.4077-.1377.8231-.2856,1.24-.4354q.4662-.1671.9408-.3454c.3991-.15.798-.299,1.2061-.4594.4634-.1823.9381-.3783,1.4135-.5756q.7908-.328,1.6054-.6853c.4668-.2041.936-.4113,1.4146-.63.3687-.1684.7429-.3439,1.1187-.5212.5028-.2371,1.0141-.4844,1.53-.7377.338-.1661.6726-.3274,1.0164-.5q1.2378-.6226,2.5267-1.3061c.2756-.1465.5613-.3047.84-.4555q.9993-.54,2.03-1.1162.504-.2825,1.016-.5746,1.1127-.6342,2.2656-1.316c.2484-.1467.4906-.286.7417-.4359q1.5205-.9078,3.1124-1.8988c.2588-.161.5259-.3316.7877-.4959q1.2809-.8045,2.6087-1.6627c.3209-.2077.6424-.4156.9675-.6282q1.5609-1.0192,3.1841-2.1112c.1111-.0747.2175-.1444.3291-.22,1.2111-.8179,2.4556-1.6745,3.7235-2.5578.3062-.2131.62-.4351.9293-.6521q1.4936-1.0482,3.0412-2.1573c.36-.2576.7173-.5132,1.0809-.776,1.3354-.9639,2.69-1.95,4.0865-2.9837,29.1033-21.528,35.1175-14.076,71.9862,19.134,36.8457,33.21,67.0089,26.262,137.866,25.146,69.1289-1.08,65.05,60.084,80.6043,115.488H1592.05C1581.243,870.192,1547.6,789.192,1493.795,767.646ZM170.5711,474.47a4.6226,4.6226,0,0,1,1.5517-5.2355c8.3435,3.6133,22.3978,10.2607,24.9141,15.3956C188.6044,483.0872,171.9183,479.4327,170.5711,474.47Z"/><path class="cls-3" d="M485.2087,0c-8.0565,4.9447-15.563,9.2445-19.566,10.8081-11.3343,4.4172-46.7631,14.3851-56.6714,57.5593-9.9331,43.1745-25.521,70.85-60.95,99.62-35.429,28.7894-113.3677-21.03-155.8775,7.7592s-25.5207,70.85-25.5207,91.88c0,15.9091-34.8581,10.9155-60.4284,8.4954a66.2666,66.2666,0,0,0,9.0462-3.2707,44.6087,44.6087,0,0,0,6.8122-3.9246,21.9652,21.9652,0,0,0,5.5293-5.35,15.8874,15.8874,0,0,0,2.7691-6.6334,21.88,21.88,0,0,0-.1288-6.6517,69.3134,69.3134,0,0,0-3.6159-12.1482c-1.4427-3.9035-2.8942-7.7438-4.1132-11.62a76.2705,76.2705,0,0,1-3.9161-23.5764c.1226-7.9365,1.2379-15.962,4.8351-23.3535,3.4793-7.431,9.4515-14.1133,17.0365-19.4478,7.5756-5.3652,16.62-9.4307,26.1507-12.4749,4.7715-1.5253,9.6655-2.8335,14.6386-3.9375,4.9589-1.1469,10.0313-1.9847,15.0123-3.0944-5.02.9823-10.1248,1.6908-15.1437,2.7141-5.0306.98-10.0019,2.1693-14.8754,3.5847A99.2158,99.2158,0,0,0,139.12,158.96c-8.0231,5.2805-14.5565,12.0811-18.5208,19.7648a49.0438,49.0438,0,0,0-4.3977,11.8987,74.6807,74.6807,0,0,0-1.6561,12.2612,78.5621,78.5621,0,0,0,3.0352,24.5191c1.0858,4.01,2.4052,7.9655,3.6726,11.8672a65.3658,65.3658,0,0,1,2.9575,11.5418,18.1952,18.1952,0,0,1-.1,5.4488,11.7545,11.7545,0,0,1-2.217,4.7725c-2.1557,2.9262-6.0665,5.1928-10.1636,7.034-8.4222,3.5507-18.3774,4.9216-28.4417,5.6918-10.11.7819-20.4847.9862-31.0605,1.9625a125.1258,125.1258,0,0,0-15.97,2.389,63.7279,63.7279,0,0,0-15.5,5.43A40.2825,40.2825,0,0,0,8.48,293.2949a34.6218,34.6218,0,0,0-6.6168,12.488C-.68,314.4708-.32,323.1961,1.1591,331.57c3.1972,16.7759,10.6219,32.5525,20.3084,47.4412,2.46,3.7163,5.0988,7.3724,7.9759,10.9559l2.2075,2.673,1.8808,2.3378c.0585.0774.1117.1545.1693.2319-10.1241-.904-19.9337-2.6952-26.7837,11.1256C-3.6163,427.6192,37.6925,435.8671,28.91,448.2193,20.1032,460.5912,2.5387,454.3956,9.57,469.5035s35.0286,10.2609,35.0286,10.2609,3.9283-24.939,18.2652-38.9329c0,0,4.6786.45,12.51,1.2312.3754-.9772.8256-2.0131,1.3261-3.1075,14.8121-31.6431,83.9436-38.5814,55.27-66.159-28.6984-27.558-3.0774-94.5378,30.8752-77.5339,33.9529,17.0235,136.7619-13.7792,127.93-53.4159-8.8072-39.6367,66.68-52.36,117.171-56.3278,50.4912-3.9872,90.1737-41.8844,103.4094-103.9194C519.5116,43.4282,557.718,15.6943,585.9162,0ZM29.16,347.3294a73.5946,73.5946,0,0,0,23.62,30.138c4.0533,6.7624,4.5538,12.1178-2.7773,15.8115-.16.0809-.3215.144-.4819.2195a44.5033,44.5033,0,0,0-3.3518-4.643c-.7724-.939-1.5907-1.8432-2.3672-2.7394l-2.1024-2.3727c-2.76-3.2013-5.3534-6.5328-7.7927-9.9414-9.6433-13.6653-17.2751-28.5043-20.7961-43.6965-1.677-7.5688-2.2174-15.294-.4152-22.4678,1.698-7.1922,6.4108-13.48,13.7905-17.6153,7.4113-4.1287,17.06-6.1159,26.9649-7.2767,3.544-.4212,7.1512-.7419,10.782-1.042C41.1893,291.6788,14.6173,313.2486,29.16,347.3294Z"/><path class="cls-4" d="M331.4712,544.74c12.1415-.5995,9.4088-14.7544,8.3884-18.7622,4.04-.8847,17.9174-4.788,13.01-15.91-5.3317-12.0829-39.1512-.5162-39.1957-.2513C313.4567,509.9758,318.2805,545.3916,331.4712,544.74Z"/><path class="cls-5" d="M834.5508,757.8324a44.9468,44.9468,0,0,0,17.5342-16.307c6.5954-11.1646,14.6649-1.8794,11.2341,2.8835a74.423,74.423,0,0,0-5.8253,9.6938s13.0665-11.7118,22.4793-10.719-4.8581,13.5736-4.8581,13.5736,27.2134-13.6751,30.4362-7.3025-5.3912,10.2959-12.7164,12.8323a132.3261,132.3261,0,0,1-16.6395,4.2188s17.2708,1.7341,11.1645,6.5957-31.4323-2.9645-31.4323-2.9645,19.99,11.2164,8,12.9972S835.8538,759.6392,834.5508,757.8324Z"/><path class="cls-6" d="M834.5508,757.8324s23.5339,12.3224,58.4374.4248"/><path class="cls-5" d="M839.7708,262.7109s21.0921,4.1548,37.2885,20.574,26.1145-3.083,18.14-9.8214A132.3643,132.3643,0,0,1,880.9668,259.25s27.5978,14.5723,43.4111,8.7988S910.14,246.7236,910.14,246.7236s52.8546,11.8573,55.6666-.5284-13.7432-15.44-27.4768-16.6569-30.5311-.1019-30.5311-.1019,29.0523-10.4418,16.4193-16.1962-52.9565,18.6736-52.9565,18.6736,29.6534-27.9764,8.1974-25.8772S841.2394,259.0316,839.7708,262.7109Z"/><path class="cls-6" d="M839.7708,262.7109s35.2913-31.4132,100.6481-25.94"/><path class="cls-5" d="M507.9708,235.3992s4.8638-15.1539.0271-31.5292,11.3523-15.8153,12.8617-8.2348a97.99,97.99,0,0,0,4.11,14.3129s.4446-23.1011,9.85-31.2781,8.7164,16.8637,8.7164,16.8637,11.25-38.4927,20.2826-35.8777,5.0806,14.4354.9494,23.7693a174.3145,174.3145,0,0,1-10.87,19.8175S571.07,188.16,570.273,198.4063s-31.0683,27.6219-31.0683,27.6219,28.7484-9.1912,19.7025,3.9583S510.8806,235.7656,507.9708,235.3992Z"/><path class="cls-6" d="M507.9708,235.3992s32.9943-11.6128,52.86-55.9184"/><path class="cls-4" d="M690.201,666.7273a12.4148,12.4148,0,0,0-2.5886-1.3384,12.4628,12.4628,0,1,0-11.2167-20.6355,12.4534,12.4534,0,1,0-24.2907,1.4188,12.4625,12.4625,0,1,0,.4293,24.6149,12.4263,12.4263,0,0,0,20.6459,13.71,12.3551,12.3551,0,0,0,2.825,2.784,12.49,12.49,0,0,0,14.1958-20.5535Z"/><path class="cls-6" d="M674.2147,667.6124a8.64,8.64,0,1,0-12.0186,2.199A8.64,8.64,0,0,0,674.2147,667.6124Z"/><path class="cls-4" d="M795.3922,210.6313a12.4156,12.4156,0,0,0-2.5885-1.3382,12.4628,12.4628,0,1,0-11.2168-20.6355,12.4534,12.4534,0,1,0-24.2908,1.4186,12.4626,12.4626,0,1,0,.4293,24.6151,12.4264,12.4264,0,0,0,20.646,13.71,12.3462,12.3462,0,0,0,2.825,2.7838,12.49,12.49,0,0,0,14.1958-20.5535Z"/><path class="cls-6" d="M779.4058,211.5166a8.6394,8.6394,0,1,0-12.0185,2.1988A8.64,8.64,0,0,0,779.4058,211.5166Z"/><path class="cls-4" d="M561.5306,766.2179a12.4134,12.4134,0,0,0-2.5886-1.3381,12.4628,12.4628,0,1,0-11.2167-20.6355,12.4535,12.4535,0,1,0-24.2908,1.4185,12.4626,12.4626,0,1,0,.4293,24.615,12.4264,12.4264,0,0,0,20.646,13.71,12.3523,12.3523,0,0,0,2.825,2.7838,12.49,12.49,0,1,0,14.1958-20.5535Z"/><path class="cls-6" d="M545.5442,767.103a8.6395,8.6395,0,1,0-12.0185,2.199A8.6393,8.6393,0,0,0,545.5442,767.103Z"/><path class="cls-4" d="M321.505,305.269a10.6979,10.6979,0,0,0-2.2255-1.1508,10.7155,10.7155,0,1,0-9.6443-17.7423,10.7076,10.7076,0,1,0-20.8853,1.2195,10.7155,10.7155,0,1,0,.3686,21.1643,10.6845,10.6845,0,0,0,17.752,11.7878,10.6193,10.6193,0,0,0,2.429,2.3936A10.7387,10.7387,0,0,0,321.505,305.269Z"/><path class="cls-6" d="M307.76,306.03a7.4283,7.4283,0,1,0-10.3337,1.8906A7.4282,7.4282,0,0,0,307.76,306.03Z"/><path class="cls-4" d="M424.1463,328.91a6.6588,6.6588,0,0,0-1.3862-.7167,6.6735,6.6735,0,1,0-6.0061-11.05,6.6685,6.6685,0,1,0-13.007.76,6.6734,6.6734,0,1,0,.2295,13.1809,6.654,6.654,0,0,0,11.0556,7.3409,6.6118,6.6118,0,0,0,1.5126,1.4909,6.6879,6.6879,0,0,0,7.6016-11.0059Z"/><path class="cls-6" d="M415.5861,329.3844a4.6263,4.6263,0,1,0-6.4357,1.1773A4.6265,4.6265,0,0,0,415.5861,329.3844Z"/><path class="cls-4" d="M193.0747,431.56a6.6437,6.6437,0,0,0-1.3861-.7167,6.6735,6.6735,0,1,0-6.0062-11.05,6.6685,6.6685,0,1,0-13.0071.7593,6.6734,6.6734,0,1,0,.23,13.1809,6.6542,6.6542,0,0,0,11.0557,7.3413,6.6163,6.6163,0,0,0,1.5126,1.49,6.6878,6.6878,0,1,0,7.6014-11.0056Z"/><path class="cls-6" d="M184.5144,432.0335a4.6262,4.6262,0,1,0-6.4355,1.1775A4.6261,4.6261,0,0,0,184.5144,432.0335Z"/><path class="cls-4" d="M619.9533,249.6471a6.6543,6.6543,0,0,0-1.3859-.7167,6.6735,6.6735,0,1,0-6.0062-11.05,6.6684,6.6684,0,1,0-13.007.76,6.6734,6.6734,0,1,0,.23,13.1809,6.654,6.654,0,0,0,11.0555,7.3411,6.6183,6.6183,0,0,0,1.5126,1.49,6.6877,6.6877,0,1,0,7.6013-11.0056Z"/><path class="cls-6" d="M611.3931,250.121a4.6262,4.6262,0,1,0-6.4355,1.1773A4.6264,4.6264,0,0,0,611.3931,250.121Z"/><path class="cls-4" d="M993.1307,613.2634a7.7525,7.7525,0,0,0-1.6121-.8334,7.7616,7.7616,0,1,0-6.9856-12.8513,7.7557,7.7557,0,1,0-15.1277.8834,7.7615,7.7615,0,1,0,.2671,15.33A7.7388,7.7388,0,0,0,982.53,624.33a7.69,7.69,0,0,0,1.7592,1.734,7.7784,7.7784,0,0,0,8.8411-12.8Z"/><path class="cls-6" d="M983.1746,613.8145a5.38,5.38,0,1,0-7.4848,1.37A5.3807,5.3807,0,0,0,983.1746,613.8145Z"/><path class="cls-4" d="M857.0783,432.1522a7.75,7.75,0,0,0-1.6121-.8334,7.7616,7.7616,0,1,0-6.9855-12.8513,7.7558,7.7558,0,1,0-15.1278.8833,7.7615,7.7615,0,1,0,.2671,15.33,7.7389,7.7389,0,0,0,12.8581,8.5377,7.6887,7.6887,0,0,0,1.7592,1.7341,7.7784,7.7784,0,0,0,8.841-12.8Z"/><path class="cls-6" d="M847.1222,432.7033a5.38,5.38,0,1,0-7.4847,1.3695A5.3806,5.3806,0,0,0,847.1222,432.7033Z"/><path class="cls-5" d="M554.6231,407.9377s18.8518-13.2707,32.5276-19.0466,38.3906,8.5269,38.3906,8.5269-25.7672,11.2621-37.8587,16.7481S554.6231,407.9377,554.6231,407.9377Z"/><path class="cls-6" d="M554.6231,407.9377s35.27-13.0008,64.293-10.9444"/><path class="cls-5" d="M646.9276,172.0484s18.8518-13.2707,32.5277-19.0465,38.3905,8.5269,38.3905,8.5269-25.7672,11.2621-37.8587,16.7481S646.9276,172.0484,646.9276,172.0484Z"/><path class="cls-6" d="M646.9276,172.0484s35.27-13.0007,64.293-10.9443"/><path class="cls-7" d="M343.9253,319.5135s12.0818,15.7148,17.5383,27.2541-5.9366,33.2879-5.9366,33.2879-10.6065-21.7282-15.7567-31.9168S343.9253,319.5135,343.9253,319.5135Z"/><path class="cls-6" d="M343.9253,319.5135s12.4438,29.8288,11.7271,54.8351"/><path class="cls-7" d="M653.2244,579.099s10.0488-24.3119-.7289-29.9239-19.96,24.824-19.96,24.824-15.5913-5.273-18.8257.7358,9.2265,7.7432,18.1441,12.07c0,0-13.292,12.2975-6.3241,20.7733S645.807,593.24,645.807,593.24s16.6661,17.3881,28.1018,12.4485C687.2159,599.94,662.142,583.4262,653.2244,579.099Z"/><path class="cls-8" d="M657.7268,572.58s-37.1178,15.0166-38.0325,18.6645,37.1514-9.6446,42.662-10.6527S665.3242,570.8736,657.7268,572.58Z"/><path class="cls-6" d="M662.3563,580.5921s19.4553-2.61,22.2484,5.7374-4.5885,4.32-4.3123,2.371"/><path class="cls-6" d="M660.3139,571.1574s14.2653-13.6837,12.895-19.4443-5.8206-2.4152-5.0364,1.8707"/><path class="cls-4" d="M551.9876,348.18c.0384-17.8728-20.9512-14.9312-26.9128-13.7362-.9934-5.9987-5.6743-26.67-22.3758-20.3063-18.1441,6.9138-3.7206,57.4461-3.3347,57.5313C499.5806,371.9987,551.946,367.5964,551.9876,348.18Z"/><path class="cls-4" d="M490.6977,138.3985c-5.0525-11.0567-17.1892-3.2766-20.5342-.8447-2.3175-3.4254-11.0824-14.8712-19.5962-6.1941-9.25,9.4265,14.0175,36.5595,14.28,36.5029C465.075,168.0051,496.1872,150.41,490.6977,138.3985Z"/><path class="cls-4" d="M696.8106,754.4882c-2.8078-6.1443-9.5522-1.8209-11.411-.47-1.2879-1.9035-6.1587-8.264-10.89-3.4421-5.14,5.2384,7.79,20.3166,7.9358,20.285C682.5717,770.9408,699.8611,761.1634,696.8106,754.4882Z"/><path class="cls-4" d="M1051.2283,138.8937c-9.4556-7.64-16.8453,4.7382-18.7535,8.4073-3.6026-2.0309-16.5539-8.3631-20.3012,3.2015-4.0711,12.5634,28.8587,26.4626,29.0685,26.2945C1041.5094,176.8232,1061.501,147.1941,1051.2283,138.8937Z"/><path class="cls-4" d="M461.4389,654.2838c12.1407-.6156,9.3895-14.7666,8.3639-18.773,4.0387-.89,17.9111-4.8113,12.9891-15.927-5.3476-12.0755-39.1521-.4647-39.1963-.2C443.3792,619.543,448.249,654.9523,461.4389,654.2838Z"/><path class="cls-9" d="M491.0708,506.1531a102.8068,102.8068,0,0,1,26.3245,5.145"/><path class="cls-9" d="M370.5384,522.489s53.66-24.2438,106.7471-18.6112"/><path class="cls-9" d="M324.897,471.1885a124.8182,124.8182,0,0,1-14.163,5.8458"/><path class="cls-9" d="M406.9964,371.02a50.0034,50.0034,0,0,0-9.51,13.0157c-11.5925,21.9982-24.2922,53.1-52.9664,75.0443"/><path class="cls-9" d="M435.485,363.5094a26.95,26.95,0,0,0-18.2292.7885"/><path class="cls-9" d="M702.6179,346.415a92.6271,92.6271,0,0,0,32.7428-10.8307"/><path class="cls-9" d="M562.5953,371.02a142.134,142.134,0,0,1,40.7892-18.656c29.1335-7.9907,52.667-5.2277,75.0349-4.8212"/><path class="cls-9" d="M521.8971,410.2421a127.4355,127.4355,0,0,1,15.4773-18.4777"/><path class="cls-9" d="M518.4563,589.2128c13.8181,7.8944,29.2687,21.5209,42.2948,45.017,32.39,58.4261,32.2044,95.3723,80.9805,97.9861"/><path class="cls-9" d="M480.9792,578.4076s6.663-.3662,16.7,2.2572"/><path class="cls-9" d="M317.31,551.9478c-13.7884-16.5469-22.7223-37.3438-31.8827-42.8571-14.6567-8.8212-34.8381-10.8394-46.9469-.7487"/><path class="cls-9" d="M449.2517,555.469a154.1923,154.1923,0,0,0-25.1022,4.3358c-26.2359,7.0636-41.3719,20.1815-75.68,13.118-8.6775-1.7865-16.0606-6.1885-22.4862-11.911"/><path class="cls-9" d="M480.6576,554.7594s-6.5172-.4345-16.1248-.1946"/><path class="cls-6" d="M720.3543,547.1333l-7.517-5.1918c-4.51-3.115-9.1447-14.0881-2.2713-16.0022S722.95,543.3747,722.95,543.3747l13.1259-43.1176,31.8424,5.3383L754.8465,545.42s-10.8806-16.3974-17.0564-10.6706,5.6183,12.763,14.46,14.4292"/><line class="cls-6" x1="733.1394" y1="509.3319" x2="764.23" y2="514.1508"/><path class="cls-6" d="M852.0374,541.4762s-1.988-1.3729-4.97-3.4324-6.0462-9.3141-1.502-10.58,8.1877,11.5274,8.1877,11.5274l8.6782-28.5068,21.0521,3.5294-8.6422,26.3294s-7.1938-10.8408-11.2768-7.0545,3.7146,8.4379,9.5606,9.5394"/><line class="cls-6" x1="860.4901" y1="516.4842" x2="881.0454" y2="519.6706"/><path class="cls-6" d="M879.1793,133.7721l-4.97-3.4324c-2.982-2.0595-6.0462-9.3142-1.502-10.58s8.1879,11.5273,8.1879,11.5273l8.678-28.5068,21.0521,3.5295-8.6422,26.3293s-7.1938-10.8408-11.2767-7.0545,3.7145,8.4379,9.56,9.54"/><line class="cls-6" x1="887.632" y1="108.7801" x2="908.1873" y2="111.9664"/><path class="cls-6" d="M526.6658,711.5458s-1.9879-1.3731-4.97-3.4324-6.046-9.3143-1.5017-10.58,8.1876,11.5274,8.1876,11.5274l8.678-28.507,21.0524,3.5294-8.6423,26.33s-7.1938-10.841-11.2767-7.0547,3.7145,8.438,9.5605,9.5394"/><line class="cls-6" x1="535.1185" y1="686.5538" x2="555.6738" y2="689.74"/><path class="cls-6" d="M360.8842,254.7l-4.2729-2.9513c-2.564-1.7708-5.1984-8.0085-1.2913-9.0966s7.04,9.9114,7.04,9.9114l7.4615-24.5106,18.1011,3.0346-7.4307,22.6385s-6.1855-9.3212-9.6961-6.0657,3.1939,7.2551,8.22,8.2022"/><line class="cls-6" x1="368.1519" y1="233.2113" x2="385.8257" y2="235.9509"/><path class="cls-5" d="M827.33,679.0037s24.579,7.9049,29.6419-6.3358c4.2986-12.0911-12.311-8.503-12.311-8.503s12.5045-5.5117,6.7476-15.9817-16.566.1087-16.566.1087,6.137-12.6462-5.4215-12.8365-14.2859,39.489-14.2859,39.489Z"/><path class="cls-6" d="M771.3689,704.4624a131.2043,131.2043,0,0,0,43.7664-29.518l27.1289-20.796"/><path class="cls-7" d="M796.4978,690.6462s6.6174-5.82,7.4147-18.2578a76.0773,76.0773,0,0,0-1.714-21.9653s-9.3188,7.8508-11.8118,15.2211S796.4978,690.6462,796.4978,690.6462Z"/><path class="cls-7" d="M789.0005,695.8591s7.4336-1.36,15.3479,4.1061l16.7077,11.54S788.4119,713.6362,789.0005,695.8591Z"/><polyline class="cls-6" points="827.793 650.853 816.081 673.467 838.392 672.687"/><path class="cls-5" d="M239.1738,350.426s-1.6554-22.1374-14.6377-21.5632c-11.0228.4878-2.7905,12.5584-2.7905,12.5584s-8.4365-8.178-14.9146-.2044,5.4465,13.1614,5.4465,13.1614-12.06-.7969-8.4714,8.4722,36.08-1.3966,36.08-1.3966Z"/><path class="cls-6" d="M277.5612,386.7683a112.8125,112.8125,0,0,0-37.6753-25.3145l-25.3438-14.8826"/><path class="cls-7" d="M258.4244,371.2207s-6.7774-3.3885-16.9435,0a65.4127,65.4127,0,0,0-16.9432,8.4725s9.2691,4.8834,15.9468,4.4845S258.4244,371.2207,258.4244,371.2207Z"/><path class="cls-7" d="M265.0023,375.5061a19.0221,19.0221,0,0,1-1.6946-13.5547c1.7939-8.0731,3.7869-17.0433,3.7869-17.0433S279.3545,370.2232,265.0023,375.5061Z"/><polyline class="cls-6" points="216.599 359.165 238.403 361.178 230.563 343.658"/><path class="cls-5" d="M361.0713,655.2421s20.8421,7.6426,25.6854-4.4162c4.1117-10.2387-10.2821-7.7318-10.2821-7.7318s10.9339-4.3018,6.3507-13.4964-14.2357-.48-14.2357-.48,5.71-10.6521-4.213-11.2159-13.6413,33.4309-13.6413,33.4309Z"/><path class="cls-6" d="M312.1121,675.1754a112.8117,112.8117,0,0,0,38.6232-23.843l24.0271-16.9264"/><path class="cls-7" d="M334.1794,664.1762s5.8868-4.7709,7.0026-15.4287a65.4091,65.4091,0,0,0-.7114-18.93s-8.2781,6.422-10.675,12.6673S334.1794,664.1762,334.1794,664.1762Z"/><path class="cls-7" d="M327.558,668.3946a19.0226,19.0226,0,0,1,13.0434,4.06c6.61,4.97,13.954,10.4927,13.954,10.4927S326.4365,683.6468,327.558,668.3946Z"/><polyline class="cls-6" points="362.444 631.073 351.599 650.096 370.793 650.199"/><path class="cls-10" d="M415.1905,460.5081c2.62-.6705,4.946-1.4692,6.2293-1.9393,10.3452-3.7893,19.8641-10.1631,19.9308-22.4138.1134-20.7639-37.4489,12.255-39.4253,18.8942C399.5227,463.1342,408.3591,462.2565,415.1905,460.5081Z"/><path class="cls-10" d="M456.316,301.6534c2.5028-1.0267,4.6958-2.1391,5.9015-2.7816,9.7221-5.183,18.2687-12.8113,16.6417-24.9537-2.7576-20.58-35.3958,17.3131-36.4355,24.1622C441.1617,306.42,449.7919,304.3288,456.316,301.6534Z"/><path class="cls-10" d="M296.1975,484.4938c-1.6937-.4068-3.2575-.6522-4.13-.771-7.03-.9566-14.3663-.1931-18.0915,6.76-6.3141,11.7858,25.0057,4.2954,28.1292,1.1108C305.9066,487.7147,300.6125,485.5548,296.1975,484.4938Z"/><path class="cls-10" d="M688.27,460.0569c-2.9846-.9945-5.7614-1.6778-7.3122-2.0261-12.5023-2.8091-25.8232-2.5706-33.6029,9.3666-13.1856,20.2323,44.3356,11.5979,50.4491,6.35C705.2448,467.355,696.0514,462.6494,688.27,460.0569Z"/><path class="cls-10" d="M571.5408,543.7128c-2.2437-1.511-4.387-2.7161-5.5915-3.3615-9.7107-5.2044-20.8015-8.0724-29.9937.0262-15.58,13.7271,34.06,19.812,40.3326,16.8713C583.9234,553.665,577.39,547.6508,571.5408,543.7128Z"/><path class="cls-10" d="M426.3963,416.8941c1.2793-.3272,2.4144-.7174,3.0405-.9467,5.05-1.85,9.6962-4.9608,9.7287-10.9407.0553-10.1353-18.2793,5.9819-19.2441,9.2227C418.7487,418.1757,423.0616,417.7474,426.3963,416.8941Z"/><path class="cls-10" d="M359.576,291.3234c1.0541-.7948,1.9515-1.5919,2.4409-2.0449,3.9475-3.6527,7.0362-8.3137,4.7623-13.8443-3.8542-9.3743-14.5634,12.5632-14.2049,15.9254C353.0125,295.4528,356.8275,293.3958,359.576,291.3234Z"/><path class="cls-10" d="M461.0654,456.6818c1.2791-.3274,2.4144-.7169,3.0405-.9464,5.05-1.85,9.696-4.9609,9.729-10.9405.0548-10.1356-18.28,5.9816-19.2445,9.2225C453.4176,457.9639,457.7309,457.5352,461.0654,456.6818Z"/><path class="cls-10" d="M286.4374,243.2741c.6252-1.1629,1.1074-2.2619,1.363-2.8781,2.0593-4.9679,2.9177-10.4933-1.4593-14.5674-7.4189-6.9058-7.9808,17.4994-6.25,20.4042C282.2,249.7685,284.8062,246.3051,286.4374,243.2741Z"/><path class="cls-10" d="M228.5425,407.09c.1-1.3164.0936-2.5165.0767-3.1834-.1354-5.3762-1.5952-10.774-7.25-12.7193-9.5843-3.2974-.1857,19.2322,2.5757,21.1841C227.3082,414.7453,228.2834,410.5223,228.5425,407.09Z"/><path class="cls-10" d="M495.2882,298.3239c1.2217-.5009,2.2922-1.0437,2.88-1.3575,4.7458-2.53,8.9176-6.2533,8.1233-12.18-1.346-10.0459-17.2773,8.4507-17.7848,11.7939C487.8912,300.6507,492.1036,299.63,495.2882,298.3239Z"/><path class="cls-10" d="M618.6352,99.3046c-1.2524-.4179-2.4179-.7051-3.0684-.8518-5.2465-1.1818-10.8372-1.0845-14.105,3.9238-5.5385,8.4883,18.6046,4.8775,21.1715,2.6763C625.7572,102.3716,621.9,100.3945,618.6352,99.3046Z"/><path class="cls-10" d="M798.0283,285.588c-1.2521-.4178-2.4176-.7052-3.0682-.8518-5.2467-1.1817-10.8374-1.0845-14.1052,3.9238-5.5383,8.4883,18.6048,4.8773,21.1717,2.6763C805.1505,288.655,801.2932,286.6779,798.0283,285.588Z"/><path class="cls-10" d="M412.1289,580.4647c-1.2738-.3465-2.4538-.5678-3.1114-.6777-5.3049-.8844-10.8814-.4726-13.8617,4.7118-5.0517,8.7868,18.85,3.8221,21.2886,1.48C419.4124,583.1257,415.45,581.3691,412.1289,580.4647Z"/><path class="cls-10" d="M702.9259,410.5157c-1.4463-.5158-2.7943-.8773-3.5476-1.0634-6.0725-1.4984-12.5761-1.5181-16.4942,4.2282-6.6411,9.7393,21.518,6.1123,24.555,3.6137C711.135,414.2505,706.6969,411.86,702.9259,410.5157Z"/><path class="cls-10" d="M618.6829,300.3721c-1.52.2193-2.8809.5292-3.6335.7167-6.0693,1.512-11.8287,4.5322-12.6091,11.4436-1.3229,11.7132,21.881-4.647,23.3992-8.2751C627.6862,299.84,622.6451,299.7993,618.6829,300.3721Z"/><path class="cls-10" d="M716.6851,189.8346c-1.52.2193-2.8809.5292-3.6335.7167-6.0693,1.512-11.8287,4.5322-12.6091,11.4436-1.3229,11.7132,21.881-4.647,23.3992-8.2751C725.6884,189.302,720.6473,189.2618,716.6851,189.8346Z"/><path class="cls-10" d="M205.4416,446.4263c-.3682,1.2678-.6094,2.4435-.73,3.0993-.9732,5.2891-.6554,10.872,4.478,13.9392,8.7006,5.1984,4.1385-18.7829,1.8379-21.261C208.2245,439.1883,206.4015,443.1205,205.4416,446.4263Z"/><path class="cls-10" d="M750.9332,445.4121c-1.225-.9257-2.4026-1.6756-3.065-2.0788-5.3433-3.2513-11.5414-5.2211-17.0031-.9154-9.2573,7.2978,18.6928,12.2868,22.34,10.8144C757.6434,451.4378,754.1268,447.8259,750.9332,445.4121Z"/><path class="cls-4" d="M1034.0181,453.5044a12.4173,12.4173,0,0,0-2.5887-1.3383,12.4628,12.4628,0,1,0-11.2166-20.6355,12.4534,12.4534,0,1,0-24.2908,1.4187,12.4625,12.4625,0,1,0,.4293,24.615,12.4264,12.4264,0,0,0,20.646,13.71,12.3531,12.3531,0,0,0,2.825,2.784,12.49,12.49,0,0,0,14.1958-20.5535Z"/><path class="cls-6" d="M1018.0317,454.39a8.6395,8.6395,0,1,0-12.0185,2.1989A8.64,8.64,0,0,0,1018.0317,454.39Z"/><path class="cls-4" d="M1252.3629,173.254a12.4148,12.4148,0,0,0-2.5886-1.3384,12.4628,12.4628,0,1,0-11.2167-20.6355,12.4534,12.4534,0,1,0-24.2907,1.4187,12.4625,12.4625,0,1,0,.4293,24.615,12.4263,12.4263,0,0,0,20.6459,13.71,12.3555,12.3555,0,0,0,2.825,2.7841,12.49,12.49,0,0,0,14.1958-20.5535Z"/><path class="cls-6" d="M1236.3766,174.1391a8.6395,8.6395,0,1,0-12.0186,2.1989A8.64,8.64,0,0,0,1236.3766,174.1391Z"/><path class="cls-6" d="M993.7812,351.2673s-3.0067-2.0765-7.5169-5.1918-9.1447-14.088-2.2713-16.0022,12.3841,17.4355,12.3841,17.4355l13.126-43.1177,31.8423,5.3383-13.0719,39.8246s-10.8806-16.3974-17.0564-10.6706,5.6183,12.763,14.4605,14.4291"/><line class="cls-6" x1="1006.5663" y1="313.4659" x2="1037.657" y2="318.2849"/><path class="cls-5" d="M1212.865,365.6912s24.579,7.9048,29.6419-6.3358c4.2986-12.0911-12.311-8.503-12.311-8.503s12.5046-5.5118,6.7476-15.9818-16.566.1088-16.566.1088,6.137-12.6463-5.4215-12.8366-14.2858,39.4891-14.2858,39.4891Z"/><path class="cls-6" d="M1156.9037,391.15a131.2044,131.2044,0,0,0,43.7665-29.5179l27.1288-20.7961"/><path class="cls-7" d="M1182.0326,377.3337s6.6174-5.82,7.4147-18.2579a76.0726,76.0726,0,0,0-1.714-21.9652s-9.3188,7.8508-11.8118,15.221S1182.0326,377.3337,1182.0326,377.3337Z"/><path class="cls-7" d="M1174.5354,382.5466s7.4335-1.36,15.3478,4.106l16.7077,11.54S1173.9467,400.3237,1174.5354,382.5466Z"/><polyline class="cls-6" points="1213.328 337.54 1201.616 360.155 1223.926 359.375"/><path class="cls-10" d="M872.9783,334.0165c-2.9846-.9945-5.7614-1.6778-7.3122-2.0261-12.5023-2.8091-25.8233-2.5706-33.6029,9.3666-13.1857,20.2323,44.3356,11.5979,50.4491,6.35C889.9527,341.3146,880.7593,336.609,872.9783,334.0165Z"/><path class="cls-5" d="M1041.9343,547.1758a44.9455,44.9455,0,0,0,17.5341-16.3069c6.5955-11.1646,14.6649-1.8794,11.2341,2.8835a74.4288,74.4288,0,0,0-5.8252,9.6938s13.0664-11.7119,22.4793-10.719-4.8582,13.5735-4.8582,13.5735,27.2135-13.675,30.4362-7.3025-5.3911,10.296-12.7163,12.8324a132.33,132.33,0,0,1-16.64,4.2188s17.2709,1.7341,11.1646,6.5956-31.4323-2.9644-31.4323-2.9644,19.99,11.2164,8,12.9971S1043.2372,548.9826,1041.9343,547.1758Z"/><path class="cls-6" d="M1041.9343,547.1758s23.5338,12.3225,58.4373.4249"/><path class="cls-4" d="M1127.4517,294.8806a7.7578,7.7578,0,0,0-1.6121-.8335,7.7616,7.7616,0,1,0-6.9856-12.8512,7.7558,7.7558,0,1,0-15.1278.8833,7.7615,7.7615,0,1,0,.2672,15.33,7.7388,7.7388,0,0,0,12.858,8.5378,7.6907,7.6907,0,0,0,1.7592,1.7341,7.7784,7.7784,0,0,0,8.8411-12.8Z"/><path class="cls-6" d="M1117.4956,295.4317a5.38,5.38,0,1,0-7.4848,1.37A5.3808,5.3808,0,0,0,1117.4956,295.4317Z"/><path class="cls-4" d="M1329.0578,273.7294c.0384-17.8728-20.9512-14.9312-26.9128-13.7362-.9934-5.9987-5.6743-26.67-22.3758-20.3063-18.1441,6.9138-3.7206,57.4461-3.3347,57.5313C1276.6508,297.5486,1329.0162,293.1463,1329.0578,273.7294Z"/><path class="cls-7" d="M1178.54,471.3121s10.0488-24.3119-.7289-29.9239-19.96,24.824-19.96,24.824-15.5913-5.273-18.8257.7358,9.2265,7.7432,18.1441,12.07c0,0-13.292,12.2975-6.3241,20.7734s20.2768-14.3389,20.2768-14.3389,16.666,17.388,28.1018,12.4484C1212.5313,492.1532,1187.4575,475.6393,1178.54,471.3121Z"/><path class="cls-8" d="M1183.0423,464.7934s-37.1179,15.0167-38.0325,18.6645,37.1514-9.6445,42.662-10.6527S1190.64,463.0867,1183.0423,464.7934Z"/><path class="cls-6" d="M1187.6718,472.8052s19.4553-2.61,22.2484,5.7375-4.5885,4.32-4.3123,2.371"/><path class="cls-6" d="M1185.6294,463.3705s14.2653-13.6837,12.895-19.4443-5.8206-2.4152-5.0364,1.8708"/><path class="cls-4" d="M1032.6517,694.025c-5.0525-11.0567-17.1893-3.2766-20.5342-.8447-2.3176-3.4254-11.0824-14.8711-19.5963-6.1941-9.25,9.4265,14.0176,36.56,14.28,36.5029C1007.029,723.6316,1038.1411,706.0369,1032.6517,694.025Z"/></g></svg>