<svg xmlns="http://www.w3.org/2000/svg" xmlns:xlink="http://www.w3.org/1999/xlink" preserveAspectRatio="xMidYMid meet" width="1600" height="900" viewBox="0 0 1600 900"><defs><style>.cls-1,.cls-8{fill:#295566;}.cls-2,.cls-34,.cls-42,.cls-47,.cls-57,.cls-67{fill:none;}.cls-3{isolation:isolate;}.cls-4{fill:#002b40;}.cls-5,.cls-6{mix-blend-mode:overlay;}.cls-5{fill:url(#Branco_preto);}.cls-7{clip-path:url(#clip-path);}.cls-10,.cls-11,.cls-12,.cls-13,.cls-16,.cls-17,.cls-8{opacity:0.35;}.cls-9{clip-path:url(#clip-path-2);}.cls-10{fill:url(#Branco_preto-2);}.cls-11{fill:url(#Branco_preto-3);}.cls-12{fill:url(#Branco_preto-4);}.cls-13{fill:url(#Branco_preto-5);}.cls-14{opacity:0.5;}.cls-15{fill:#fff;}.cls-16{fill:url(#Branco_preto-6);}.cls-17{fill:url(#Branco_preto-7);}.cls-18{fill:url(#Áåçûìÿííûé_ãðàäèåíò_6);}.cls-19{fill:url(#Áåçûìÿííûé_ãðàäèåíò_6-2);}.cls-20{fill:url(#linear-gradient);}.cls-21{fill:url(#Áåçûìÿííûé_ãðàäèåíò_6-3);}.cls-22{fill:url(#Áåçûìÿííûé_ãðàäèåíò_6-4);}.cls-23{fill:url(#Áåçûìÿííûé_ãðàäèåíò_6-5);}.cls-24{fill:url(#linear-gradient-2);}.cls-25{fill:url(#linear-gradient-3);}.cls-26{fill:url(#Áåçûìÿííûé_ãðàäèåíò_6-6);}.cls-27{fill:url(#Áåçûìÿííûé_ãðàäèåíò_6-7);}.cls-28{fill:url(#linear-gradient-4);}.cls-29{fill:url(#linear-gradient-5);}.cls-30{fill:url(#linear-gradient-6);}.cls-31{fill:url(#linear-gradient-7);}.cls-32{fill:url(#Áåçûìÿííûé_ãðàäèåíò_6-8);}.cls-33{fill:url(#linear-gradient-8);}.cls-34,.cls-42,.cls-47,.cls-57,.cls-67{stroke-miterlimit:10;}.cls-34{stroke:url(#Nova_amostra_de_gradiente);}.cls-35{fill:url(#linear-gradient-9);}.cls-36{fill:url(#linear-gradient-10);}.cls-37{fill:url(#linear-gradient-11);}.cls-38{fill:url(#linear-gradient-12);}.cls-39{fill:url(#linear-gradient-13);}.cls-40{fill:url(#Áåçûìÿííûé_ãðàäèåíò_6-9);}.cls-41{fill:url(#linear-gradient-14);}.cls-42{stroke:url(#Nova_amostra_de_gradiente-2);}.cls-43{fill:url(#linear-gradient-15);}.cls-44{fill:url(#linear-gradient-16);}.cls-45{fill:#6d5b7b;}.cls-46{fill:url(#linear-gradient-17);}.cls-47{stroke:url(#Áåçûìÿííûé_ãðàäèåíò_6-10);}.cls-48{fill:url(#Áåçûìÿííûé_ãðàäèåíò_6-11);}.cls-49{fill:url(#Áåçûìÿííûé_ãðàäèåíò_6-12);}.cls-50{fill:url(#Áåçûìÿííûé_ãðàäèåíò_6-13);}.cls-51{fill:url(#Áåçûìÿííûé_ãðàäèåíò_6-14);}.cls-52{fill:url(#Áåçûìÿííûé_ãðàäèåíò_6-15);}.cls-53{fill:url(#Áåçûìÿííûé_ãðàäèåíò_6-16);}.cls-54{fill:url(#Áåçûìÿííûé_ãðàäèåíò_6-17);}.cls-55{fill:url(#linear-gradient-18);}.cls-56{fill:url(#linear-gradient-19);}.cls-57{stroke:url(#Áåçûìÿííûé_ãðàäèåíò_6-18);}.cls-58{fill:url(#Áåçûìÿííûé_ãðàäèåíò_6-19);}.cls-59{fill:url(#Áåçûìÿííûé_ãðàäèåíò_6-20);}.cls-60{fill:url(#Áåçûìÿííûé_ãðàäèåíò_6-21);}.cls-61{fill:url(#Áåçûìÿííûé_ãðàäèåíò_6-22);}.cls-62{fill:url(#Áåçûìÿííûé_ãðàäèåíò_6-23);}.cls-63{fill:url(#Áåçûìÿííûé_ãðàäèåíò_6-24);}.cls-64{fill:url(#Áåçûìÿííûé_ãðàäèåíò_6-25);}.cls-65{fill:url(#linear-gradient-20);}.cls-66{fill:url(#linear-gradient-21);}.cls-67{stroke:url(#Áåçûìÿííûé_ãðàäèåíò_6-26);}.cls-68{fill:url(#Áåçûìÿííûé_ãðàäèåíò_6-27);}.cls-69{fill:url(#Áåçûìÿííûé_ãðàäèåíò_6-28);}.cls-70{fill:url(#Áåçûìÿííûé_ãðàäèåíò_6-29);}.cls-71{fill:url(#Áåçûìÿííûé_ãðàäèåíò_6-30);}.cls-72{fill:url(#Áåçûìÿííûé_ãðàäèåíò_6-31);}.cls-73{fill:url(#Áåçûìÿííûé_ãðàäèåíò_6-32);}.cls-74{fill:url(#Áåçûìÿííûé_ãðàäèåíò_6-33);}.cls-75{fill:#90abaf;}.cls-76{fill:#789c9e;}.cls-77{fill:#c5d5db;}.cls-78{fill:#c06c84;}.cls-79{fill:url(#Áåçûìÿííûé_ãðàäèåíò_59);}.cls-80{fill:#355c7d;}.cls-81{fill:#e89179;}.cls-82{fill:url(#linear-gradient-22);}.cls-83{fill:url(#linear-gradient-23);}.cls-84{fill:#f8b195;}.cls-85{fill:url(#Áåçûìÿííûé_ãðàäèåíò_59-2);}.cls-86{fill:url(#Áåçûìÿííûé_ãðàäèåíò_6-34);}.cls-87{fill:url(#linear-gradient-24);}.cls-88{fill:url(#linear-gradient-25);}.cls-89{fill:url(#linear-gradient-26);}.cls-90{fill:url(#Áåçûìÿííûé_ãðàäèåíò_59-3);}.cls-91{fill:url(#Áåçûìÿííûé_ãðàäèåíò_59-4);}.cls-92{fill:url(#Áåçûìÿííûé_ãðàäèåíò_6-35);}.cls-93{fill:#e59c83;}.cls-94{fill:url(#Áåçûìÿííûé_ãðàäèåíò_6-36);}.cls-95{fill:#5c4b6d;}.cls-96{fill:url(#Áåçûìÿííûé_ãðàäèåíò_59-5);}.cls-97{fill:url(#Áåçûìÿííûé_ãðàäèåíò_59-6);}.cls-98{fill:url(#linear-gradient-27);}.cls-99{fill:url(#Áåçûìÿííûé_ãðàäèåíò_6-37);}.cls-100{fill:url(#linear-gradient-28);}.cls-101{fill:#05638d;}.cls-102{opacity:0.6;mix-blend-mode:soft-light;}</style><linearGradient id="Branco_preto" x1="800" y1="1146.80004" x2="800" y2="-93.79596" gradientUnits="userSpaceOnUse"><stop offset="0" stop-color="#fff"/><stop offset="1"/></linearGradient><clipPath id="clip-path"><path class="cls-1" d="M489.96036,548.08875C375.06558,650.62465,480.912,809.204,847.48985,809.204c366.57827,0,316.50289-119.4578,270.188-179.3633-46.31515-59.9057-53.01667-62.4107-92.14735-152.2807S791.24989,279.20775,489.96036,548.08875Z"/></clipPath><clipPath id="clip-path-2"><rect class="cls-2" x="-0.04427" y="268.44715" width="1600.04427" height="630"/></clipPath><linearGradient id="Branco_preto-2" x1="-478.15963" y1="725.51784" x2="608.06176" y2="725.51784" xlink:href="#Branco_preto"/><linearGradient id="Branco_preto-3" x1="-408.11356" y1="759.10834" x2="579.88284" y2="759.10834" xlink:href="#Branco_preto"/><linearGradient id="Branco_preto-4" x1="1864.83119" y1="704.7487" x2="1040.47465" y2="704.7487" xlink:href="#Branco_preto"/><linearGradient id="Branco_preto-5" x1="1967.75564" y1="787.58319" x2="1134.19978" y2="787.58319" xlink:href="#Branco_preto"/><linearGradient id="Branco_preto-6" x1="73.81973" y1="434.34801" x2="436.00633" y2="434.34801" xlink:href="#Branco_preto"/><linearGradient id="Branco_preto-7" x1="1136.07898" y1="532.64161" x2="1480.03481" y2="532.64161" xlink:href="#Branco_preto"/><linearGradient id="Áåçûìÿííûé_ãðàäèåíò_6" x1="581.64729" y1="487.26653" x2="588.19234" y2="497.83929" gradientUnits="userSpaceOnUse"><stop offset="0" stop-color="#e9a86b"/><stop offset="0.03872" stop-color="#e8a06e"/><stop offset="0.32469" stop-color="#e06881"/><stop offset="0.46275" stop-color="#dd5289"/><stop offset="1" stop-color="#553398"/></linearGradient><linearGradient id="Áåçûìÿííûé_ãðàäèåíò_6-2" x1="694.03847" y1="434.27843" x2="699.38376" y2="453.22988" xlink:href="#Áåçûìÿííûé_ãðàäèåíò_6"/><linearGradient id="linear-gradient" x1="779.40974" y1="460.1224" x2="781.78039" y2="476.71698" gradientUnits="userSpaceOnUse"><stop offset="0" stop-color="#9bf4ff"/><stop offset="0.53266" stop-color="#87cffd"/><stop offset="1" stop-color="#73abfb"/></linearGradient><linearGradient id="Áåçûìÿííûé_ãðàäèåíò_6-3" x1="658.10165" y1="470.22595" x2="661.80426" y2="486.96179" xlink:href="#Áåçûìÿííûé_ãðàäèåíò_6"/><linearGradient id="Áåçûìÿííûé_ãðàäèåíò_6-4" x1="563.05295" y1="451.81757" x2="577.66683" y2="472.47859" xlink:href="#Áåçûìÿííûé_ãðàäèåíò_6"/><linearGradient id="Áåçûìÿííûé_ãðàäèåíò_6-5" x1="1734.85478" y1="2048.20915" x2="1750.13422" y2="2069.81113" gradientTransform="matrix(0.7742, 0.6329, -0.6329, 0.7742, 684.08, -2271.75472)" xlink:href="#Áåçûìÿííûé_ãðàäèåíò_6"/><linearGradient id="linear-gradient-2" x1="555.13097" y1="-828.33528" x2="569.03644" y2="-808.6758" gradientTransform="translate(410.32026 1501.1616) rotate(-26.44719)" xlink:href="#linear-gradient"/><linearGradient id="linear-gradient-3" x1="647.61698" y1="443.43006" x2="653.03306" y2="443.43006" xlink:href="#linear-gradient"/><linearGradient id="Áåçûìÿííûé_ãðàäèåíò_6-6" x1="2229.89794" y1="2351.31949" x2="2235.66091" y2="2351.31949" gradientTransform="translate(1141.50645 -2788.74052) rotate(50.05871)" xlink:href="#Áåçûìÿííûé_ãðàäèåíò_6"/><linearGradient id="Áåçûìÿííûé_ãðàäèåíò_6-7" x1="863.7498" y1="1018.24148" x2="869.17685" y2="1018.24148" gradientTransform="matrix(0.9801, 0.1985, -0.1985, 0.9801, 27.59578, -753.65797)" xlink:href="#Áåçûìÿííûé_ãðàäèåíò_6"/><linearGradient id="linear-gradient-4" x1="617.39728" y1="562.82313" x2="647.36114" y2="562.82313" xlink:href="#linear-gradient"/><linearGradient id="linear-gradient-5" x1="640.66122" y1="515.91601" x2="654.57282" y2="515.91601" xlink:href="#linear-gradient"/><linearGradient id="linear-gradient-6" x1="616.14034" y1="533.28937" x2="644.73895" y2="533.28937" xlink:href="#linear-gradient"/><linearGradient id="linear-gradient-7" x1="646.92902" y1="549.29805" x2="668.25055" y2="549.29805" xlink:href="#linear-gradient"/><linearGradient id="Áåçûìÿííûé_ãðàäèåíò_6-8" x1="609.43999" y1="-776.00208" x2="609.43999" y2="-697.3512" gradientTransform="matrix(0.9138, -0.4061, 0.4061, 0.9138, 356.7418, 1382.03964)" xlink:href="#Áåçûìÿííûé_ãðàäèåíò_6"/><linearGradient id="linear-gradient-8" x1="606.80588" y1="489.09011" x2="644.7686" y2="489.09011" gradientUnits="userSpaceOnUse"><stop offset="0" stop-color="#f3d554"/><stop offset="0.57789" stop-color="#ebae53"/><stop offset="1" stop-color="#e69652"/></linearGradient><linearGradient id="Nova_amostra_de_gradiente" x1="625.45475" y1="541.18634" x2="647.07255" y2="541.18634" xlink:href="#linear-gradient"/><linearGradient id="linear-gradient-9" x1="627.7966" y1="494.01625" x2="634.12391" y2="505.788" xlink:href="#linear-gradient"/><linearGradient id="linear-gradient-10" x1="6378.05436" y1="-231.38083" x2="6398.21571" y2="-231.38083" gradientTransform="matrix(-0.96, 0.2801, 0.2801, 0.96, 6882.50259, -983.67644)" xlink:href="#linear-gradient"/><linearGradient id="linear-gradient-11" x1="6392.78248" y1="-264.61761" x2="6401.58787" y2="-264.61761" gradientTransform="matrix(-0.96, 0.2801, 0.2801, 0.96, 6882.50259, -983.67644)" xlink:href="#linear-gradient"/><linearGradient id="linear-gradient-12" x1="6376.65828" y1="-252.50562" x2="6395.83741" y2="-252.50562" gradientTransform="matrix(-0.96, 0.2801, 0.2801, 0.96, 6882.50259, -983.67644)" xlink:href="#linear-gradient"/><linearGradient id="linear-gradient-13" x1="6397.6155" y1="-240.57873" x2="6411.30338" y2="-240.57873" gradientTransform="matrix(-0.96, 0.2801, 0.2801, 0.96, 6882.50259, -983.67644)" xlink:href="#linear-gradient"/><linearGradient id="Áåçûìÿííûé_ãðàäèåíò_6-9" x1="6182.51097" y1="875.49746" x2="6182.51097" y2="932.30699" gradientTransform="matrix(-0.991, -0.134, -0.134, 0.991, 6926.08933, 442.30783)" xlink:href="#Áåçûìÿííûé_ãðàäèåíò_6"/><linearGradient id="linear-gradient-14" x1="6369.85302" y1="-284.06139" x2="6394.68849" y2="-284.06139" gradientTransform="matrix(-0.96, 0.2801, 0.2801, 0.96, 6882.50259, -983.67644)" xlink:href="#linear-gradient-8"/><linearGradient id="Nova_amostra_de_gradiente-2" x1="6381.95838" y1="-246.84512" x2="6398.057" y2="-246.84512" gradientTransform="matrix(-0.96, 0.2801, 0.2801, 0.96, 6882.50259, -983.67644)" xlink:href="#linear-gradient"/><linearGradient id="linear-gradient-15" x1="6383.68151" y1="-280.59897" x2="6388.21808" y2="-272.15883" gradientTransform="matrix(-0.96, 0.2801, 0.2801, 0.96, 6882.50259, -983.67644)" xlink:href="#linear-gradient"/><linearGradient id="linear-gradient-16" x1="5272.86272" y1="2060.45789" x2="5277.51494" y2="2136.75475" gradientTransform="matrix(0.55001, -0.83511, -0.83511, -0.55001, -408.64044, 6034.03014)" xlink:href="#linear-gradient-8"/><linearGradient id="linear-gradient-17" x1="709.75337" y1="497.7417" x2="743.86147" y2="497.7417" xlink:href="#linear-gradient"/><linearGradient id="Áåçûìÿííûé_ãðàäèåíò_6-10" x1="637.60487" y1="43.67393" x2="663.17038" y2="43.67393" gradientTransform="translate(74.09516 624.54075) rotate(-10.29972)" xlink:href="#Áåçûìÿííûé_ãðàäèåíò_6"/><linearGradient id="Áåçûìÿííûé_ãðàäèåíò_6-11" x1="714.28535" y1="499.67209" x2="739.32932" y2="499.67209" xlink:href="#Áåçûìÿííûé_ãðàäèåíò_6"/><linearGradient id="Áåçûìÿííûé_ãðàäèåíò_6-12" x1="700.12146" y1="496.58541" x2="722.08164" y2="567.55801" xlink:href="#Áåçûìÿííûé_ãðàäèåíò_6"/><linearGradient id="Áåçûìÿííûé_ãðàäèåíò_6-13" x1="688.32814" y1="501.74547" x2="709.95101" y2="571.62788" xlink:href="#Áåçûìÿííûé_ãðàäèåíò_6"/><linearGradient id="Áåçûìÿííûé_ãðàäèåíò_6-14" x1="680.60048" y1="506.04977" x2="701.92854" y2="574.9794" xlink:href="#Áåçûìÿííûé_ãðàäèåíò_6"/><linearGradient id="Áåçûìÿííûé_ãðàäèåíò_6-15" x1="717.67135" y1="490.21335" x2="739.91177" y2="562.09159" xlink:href="#Áåçûìÿííûé_ãðàäèåíò_6"/><linearGradient id="Áåçûìÿííûé_ãðàäèåíò_6-16" x1="709.02175" y1="493.10829" x2="731.25706" y2="564.97007" xlink:href="#Áåçûìÿííûé_ãðàäèåíò_6"/><linearGradient id="Áåçûìÿííûé_ãðàäèåíò_6-17" x1="703.44431" y1="493.72908" x2="726.04161" y2="566.76074" xlink:href="#Áåçûìÿííûé_ãðàäèåíò_6"/><linearGradient id="linear-gradient-18" x1="1525.80354" y1="-1950.06871" x2="1528.55544" y2="-1904.93719" gradientTransform="matrix(0.5706, -0.8212, 0.8212, 0.5706, 1288.76832, 2876.15915)" xlink:href="#linear-gradient-8"/><linearGradient id="linear-gradient-19" x1="6173.55246" y1="-237.93749" x2="6194.81897" y2="-237.93749" gradientTransform="matrix(-0.9626, 0.2711, 0.2711, 0.9626, 6606.40083, -911.80064)" xlink:href="#linear-gradient"/><linearGradient id="Áåçûìÿííûé_ãðàäèåíò_6-18" x1="6151.26927" y1="275.95334" x2="6165.82104" y2="275.95334" gradientTransform="matrix(-0.9955, 0.0946, 0.0946, 0.9955, 6704.63248, -291.29581)" xlink:href="#Áåçûìÿííûé_ãðàäèåíò_6"/><linearGradient id="Áåçûìÿííûé_ãðàäèåíò_6-19" x1="6176.42862" y1="-236.96437" x2="6192.03368" y2="-236.96437" gradientTransform="matrix(-0.9626, 0.2711, 0.2711, 0.9626, 6606.40083, -911.80064)" xlink:href="#Áåçûìÿííûé_ãðàäèåíò_6"/><linearGradient id="Áåçûìÿííûé_ãðàäèåíò_6-20" x1="6168.07749" y1="-239.5154" x2="6181.74349" y2="-195.34858" gradientTransform="matrix(-0.9626, 0.2711, 0.2711, 0.9626, 6606.40083, -911.80064)" xlink:href="#Áåçûìÿííûé_ãðàäèåíò_6"/><linearGradient id="Áåçûìÿííûé_ãðàäèåíò_6-21" x1="6161.10237" y1="-237.27272" x2="6174.74947" y2="-193.167" gradientTransform="matrix(-0.9626, 0.2711, 0.2711, 0.9626, 6606.40083, -911.80064)" xlink:href="#Áåçûìÿííûé_ãðàäèåíò_6"/><linearGradient id="Áåçûìÿííûé_ãðàäèåíò_6-22" x1="6156.50214" y1="-235.74187" x2="6170.1326" y2="-191.68993" gradientTransform="matrix(-0.9626, 0.2711, 0.2711, 0.9626, 6606.40083, -911.80064)" xlink:href="#Áåçûìÿííûé_ãðàäèåíò_6"/><linearGradient id="Áåçûìÿííûé_ãðàäèåíò_6-23" x1="6179.08936" y1="-242.9702" x2="6192.7683" y2="-198.76158" gradientTransform="matrix(-0.9626, 0.2711, 0.2711, 0.9626, 6606.40083, -911.80064)" xlink:href="#Áåçûìÿííûé_ãðàäèåíò_6"/><linearGradient id="Áåçûìÿííûé_ãðàäèåíò_6-24" x1="6174.12914" y1="-241.41904" x2="6187.80713" y2="-197.21348" gradientTransform="matrix(-0.9626, 0.2711, 0.2711, 0.9626, 6606.40083, -911.80064)" xlink:href="#Áåçûìÿííûé_ãðàäèåíò_6"/><linearGradient id="Áåçûìÿííûé_ãðàäèåíò_6-25" x1="6171.19969" y1="-240.57634" x2="6184.89927" y2="-196.30099" gradientTransform="matrix(-0.9626, 0.2711, 0.2711, 0.9626, 6606.40083, -911.80064)" xlink:href="#Áåçûìÿííûé_ãðàäèåíò_6"/><linearGradient id="linear-gradient-20" x1="5316.80376" y1="2049.54458" x2="5319.64639" y2="2096.1641" gradientTransform="matrix(0.54218, -0.84033, -0.84033, -0.54218, -360.77905, 6107.04396)" xlink:href="#linear-gradient-8"/><linearGradient id="linear-gradient-21" x1="702.93168" y1="439.60201" x2="723.72159" y2="439.60201" gradientTransform="matrix(0.9999, -0.0159, 0.0159, 0.9999, 52.58436, 100.23832)" xlink:href="#linear-gradient"/><linearGradient id="Áåçûìÿííûé_ãðàäèåíò_6-26" x1="645.61708" y1="-35.7659" x2="661.65287" y2="-35.7659" gradientTransform="translate(136.03138 723.24123) rotate(-11.20992)" xlink:href="#Áåçûìÿííûé_ãðàäèåíò_6"/><linearGradient id="Áåçûìÿííûé_ãðàäèåíò_6-27" x1="705.69103" y1="440.79164" x2="720.95674" y2="440.79164" gradientTransform="matrix(0.9999, -0.0159, 0.0159, 0.9999, 52.58436, 100.23832)" xlink:href="#Áåçûìÿííûé_ãðàäèåíò_6"/><linearGradient id="Áåçûìÿííûé_ãðàäèåíò_6-28" x1="697.0323" y1="438.9481" x2="710.40734" y2="482.17457" gradientTransform="matrix(0.9999, -0.0159, 0.0159, 0.9999, 52.58436, 100.23832)" xlink:href="#Áåçûìÿííûé_ãðàäèåíò_6"/><linearGradient id="Áåçûìÿííûé_ãðàäèåíò_6-29" x1="689.82367" y1="442.14297" x2="702.98343" y2="484.67368" gradientTransform="matrix(0.9999, -0.0159, 0.0159, 0.9999, 52.58436, 100.23832)" xlink:href="#Áåçûìÿííûé_ãðàäèåíò_6"/><linearGradient id="Áåçûìÿííûé_ãðàäèåíò_6-30" x1="685.10142" y1="444.82442" x2="698.07334" y2="486.74804" gradientTransform="matrix(0.9999, -0.0159, 0.0159, 0.9999, 52.58436, 100.23832)" xlink:href="#Áåçûìÿííûé_ãðàäèåíò_6"/><linearGradient id="Áåçûìÿííûé_ãðàäèåíò_6-31" x1="707.72781" y1="435.03424" x2="721.28347" y2="478.84445" gradientTransform="matrix(0.9999, -0.0159, 0.0159, 0.9999, 52.58436, 100.23832)" xlink:href="#Áåçûìÿííûé_ãðàäèåíò_6"/><linearGradient id="Áåçûìÿííûé_ãðàäèåíò_6-32" x1="702.43226" y1="436.80961" x2="715.98512" y2="480.61079" gradientTransform="matrix(0.9999, -0.0159, 0.0159, 0.9999, 52.58436, 100.23832)" xlink:href="#Áåçûìÿííûé_ãðàäèåíò_6"/><linearGradient id="Áåçûìÿííûé_ãðàäèåíò_6-33" x1="699.00516" y1="437.16686" x2="712.78796" y2="481.71116" gradientTransform="matrix(0.9999, -0.0159, 0.0159, 0.9999, 52.58436, 100.23832)" xlink:href="#Áåçûìÿííûé_ãðàäèåíò_6"/><linearGradient id="Áåçûìÿííûé_ãðàäèåíò_59" x1="860.57552" y1="401.76998" x2="841.92069" y2="424.32933" gradientUnits="userSpaceOnUse"><stop offset="0" stop-color="#e06f70"/><stop offset="0.40649" stop-color="#8f5874"/><stop offset="0.81293" stop-color="#434378"/><stop offset="1" stop-color="#253b7a"/></linearGradient><linearGradient id="linear-gradient-22" x1="799.85351" y1="469.40892" x2="822.83734" y2="470.1584" xlink:href="#linear-gradient"/><linearGradient id="linear-gradient-23" x1="840.74527" y1="452.49836" x2="845.77589" y2="503.36399" xlink:href="#linear-gradient"/><linearGradient id="Áåçûìÿííûé_ãðàäèåíò_59-2" x1="822.6108" y1="405.26121" x2="846.3655" y2="448.52877" xlink:href="#Áåçûìÿííûé_ãðàäèåíò_59"/><linearGradient id="Áåçûìÿííûé_ãðàäèåíò_6-34" x1="817.10086" y1="424.28662" x2="817.10086" y2="589.65684" xlink:href="#Áåçûìÿííûé_ãðàäèåíò_6"/><linearGradient id="linear-gradient-24" x1="868.11248" y1="449.66652" x2="873.12592" y2="500.35834" xlink:href="#linear-gradient"/><linearGradient id="linear-gradient-25" x1="704.14874" y1="885.39033" x2="719.56648" y2="905.33438" gradientTransform="matrix(0.9054, 0.0055, -0.0062, 1.0187, 351.6386, -22.47531)" xlink:href="#linear-gradient"/><linearGradient id="linear-gradient-26" x1="1017.24604" y1="881.23713" x2="1024.73314" y2="904.79024" xlink:href="#linear-gradient"/><linearGradient id="Áåçûìÿííûé_ãðàäèåíò_59-3" x1="987.55309" y1="677.85539" x2="1040.12012" y2="846.25596" xlink:href="#Áåçûìÿííûé_ãðàäèåíò_59"/><linearGradient id="Áåçûìÿííûé_ãðàäèåíò_59-4" x1="962.74658" y1="684.40777" x2="1016.45977" y2="856.48011" xlink:href="#Áåçûìÿííûé_ãðàäèåíò_59"/><linearGradient id="Áåçûìÿííûé_ãðàäèåíò_6-35" x1="989.9166" y1="626.48823" x2="1003.21546" y2="783.4148" xlink:href="#Áåçûìÿííûé_ãðàäèåíò_6"/><linearGradient id="Áåçûìÿííûé_ãðàäèåíò_6-36" x1="1011.07527" y1="623.13375" x2="1025.31421" y2="791.15331" xlink:href="#Áåçûìÿííûé_ãðàäèåíò_6"/><linearGradient id="Áåçûìÿííûé_ãðàäèåíò_59-5" x1="1018.98602" y1="578.59143" x2="1027.69552" y2="607.28151" xlink:href="#Áåçûìÿííûé_ãðàäèåíò_59"/><linearGradient id="Áåçûìÿííûé_ãðàäèåíò_59-6" x1="1022.92744" y1="577.32046" x2="1031.70336" y2="606.22935" xlink:href="#Áåçûìÿííûé_ãðàäèåíò_59"/><linearGradient id="linear-gradient-27" x1="974.70171" y1="638.25955" x2="982.60007" y2="767.79357" gradientTransform="translate(1504.04499 -380.18953) rotate(79.91093)" xlink:href="#linear-gradient-8"/><linearGradient id="Áåçûìÿííûé_ãðàäèåíò_6-37" x1="1043.5945" y1="621.54865" x2="1056.86313" y2="778.11843" xlink:href="#Áåçûìÿííûé_ãðàäèåíò_6"/><linearGradient id="linear-gradient-28" x1="697.06849" y1="600.86075" x2="697.06849" y2="932.10655" xlink:href="#linear-gradient"/></defs><title>5861525</title><g class="cls-3"><g id="OBJECTS"><rect class="cls-4" width="1600" height="900"/><rect class="cls-5" y="-1.26426" width="1600" height="900"/><g class="cls-6"><path class="cls-1" d="M489.96036,548.08875C375.06558,650.62465,480.912,809.204,847.48985,809.204c366.57827,0,316.50289-119.4578,270.188-179.3633-46.31515-59.9057-53.01667-62.4107-92.14735-152.2807S791.24989,279.20775,489.96036,548.08875Z"/><g class="cls-7"><path class="cls-8" d="M489.96036,548.08875C375.06558,650.62465,480.912,809.204,847.48985,809.204c366.57827,0,316.50289-119.4578,270.188-179.3633-46.31515-59.9057-53.01667-62.4107-92.14735-152.2807S791.24989,279.20775,489.96036,548.08875Z"/><path class="cls-1" d="M616.882,782.26765c-3.591-4.5501-124.69-146.0427-82.72962-218.3879,41.96063-72.3451,93.063,133.7254,93.063,133.7254s-35.31737-226.6356,48.28027-228.4314S671.87939,851.95085,616.882,782.26765Z"/><path class="cls-1" d="M556.5658,583.53135l74.959,207.347s45.50672-167.2413,37.51117-267.26"/><path class="cls-1" d="M1054.50784,788.93555c-5.556.4679-82.31521-179.8369-7.88088-215.0332S1115.30166,783.81515,1054.50784,788.93555Z"/><line class="cls-1" x1="1055.95828" y1="608.77235" x2="1054.50784" y2="788.93555"/></g></g><g class="cls-9"><g class="cls-6"><path class="cls-10" d="M608.06176,898.44715S394.275,664.42425,273.66344,653.12925c-83.88912-7.856-89.99369,50.6201-89.99369,50.6201S-313.364,257.51365-478.15963,898.44715Z"/><path class="cls-11" d="M579.88284,898.44715S463.31669,775.497,374.966,776.00425c-98.41619.5649-127.31032,62.4954-127.31032,62.4954s-618.05443-529.9559-655.76921,59.9475Z"/><path class="cls-12" d="M1040.47465,898.44715s210.5577-215.8446,268.665-238.8676c92.07334-36.4809,135.76309,30.0751,135.76309,30.0751s64.81312-158.0355,123.93156-165.6526,70.77022,57.0266,70.77022,57.0266,165.2403-292.1497,225.22663,317.4185H1040.47465Z"/><path class="cls-13" d="M1859.96265,898.44705H1134.19978s113.62834-150.6983,258.32715-150.6983c89.53994,0,133.49961,37.2925,133.49961,37.2925s441.7291-307.3615,441.7291,113.4058Z"/></g></g><g class="cls-14"><ellipse class="cls-15" cx="394.33561" cy="830.51745" rx="16.90223" ry="12.6764"/><ellipse class="cls-15" cx="57.45962" cy="798.03387" rx="16.90223" ry="12.67637"/><ellipse class="cls-15" cx="343.80421" cy="738.30207" rx="16.90223" ry="12.67637"/><ellipse class="cls-15" cx="253.52918" cy="782.54022" rx="16.90223" ry="12.67633"/><ellipse class="cls-15" cx="256.54816" cy="719.28755" rx="8.45117" ry="6.3382"/><path class="cls-15" d="M140.42122,731.96385c0,3.5005-3.78371,6.3382-8.45117,6.3382s-8.45117-2.8377-8.45117-6.3382,3.78371-6.3381,8.45117-6.3381S140.42122,728.46345,140.42122,731.96385Z"/><path class="cls-15" d="M157.32342,810.71025c0,3.5005-3.7837,6.3382-8.451,6.3382s-8.45117-2.8377-8.45117-6.3382,3.7837-6.3382,8.45117-6.3382S157.32342,807.20975,157.32342,810.71025Z"/><path class="cls-15" d="M355.20889,864.82755c0,3.5005-3.7837,6.3382-8.45116,6.3382s-8.45117-2.8377-8.45117-6.3382,3.7837-6.3381,8.45117-6.3381S355.20889,861.32715,355.20889,864.82755Z"/><path class="cls-15" d="M458.67789,836.85565c0,3.5005-3.7837,6.3382-8.451,6.3382s-8.45117-2.8377-8.45117-6.3382,3.7837-6.3382,8.45117-6.3382S458.67789,833.35515,458.67789,836.85565Z"/><path class="cls-15" d="M256.54816,864.82755c0,3.5005-3.7837,6.3382-8.45116,6.3382s-8.45117-2.8377-8.45117-6.3382,3.78371-6.3381,8.45117-6.3381S256.54816,861.32715,256.54816,864.82755Z"/><path class="cls-15" d="M69.46579,666.76805c0,3.5004-3.78371,6.3381-8.451,6.3381-4.66747,0-8.45117-2.8377-8.45117-6.3381s3.7837-6.3382,8.45117-6.3382C65.68208,660.42985,69.46579,663.26755,69.46579,666.76805Z"/><path class="cls-15" d="M109.32929,845.59105c0,3.5004-3.7837,6.3381-8.45117,6.3381s-8.45116-2.8377-8.45116-6.3381,3.7837-6.3382,8.45116-6.3382S109.32929,842.09055,109.32929,845.59105Z"/></g><g class="cls-14"><ellipse class="cls-15" cx="1339.99924" cy="858.48942" rx="16.90223" ry="12.67633"/><ellipse class="cls-15" cx="1534.87054" cy="713.93772" rx="16.90227" ry="12.67632"/><ellipse class="cls-15" cx="1517.96825" cy="786.54152" rx="16.90232" ry="12.67632"/><ellipse class="cls-15" cx="1561.6105" cy="871.16577" rx="16.9023" ry="12.67638"/><ellipse class="cls-15" cx="1266.19853" cy="786.54152" rx="16.90223" ry="12.67633"/><path class="cls-15" d="M1462.91447,858.48945c0,3.5004-3.7837,6.3381-8.45116,6.3381s-8.45117-2.8377-8.45117-6.3381,3.7837-6.3382,8.45117-6.3382S1462.91447,854.989,1462.91447,858.48945Z"/><ellipse class="cls-15" cx="1446.01214" cy="805.55605" rx="8.45117" ry="6.3382"/><ellipse class="cls-15" cx="1339.99921" cy="713.93775" rx="8.45117" ry="6.3382"/><path class="cls-15" d="M1211.40645,817.84105c0,3.5005-3.78371,6.3382-8.45117,6.3382s-8.451-2.8377-8.451-6.3382,3.7837-6.3381,8.451-6.3381S1211.40645,814.34065,1211.40645,817.84105Z"/><ellipse class="cls-15" cx="1356.90154" cy="799.21785" rx="8.45117" ry="6.3382"/><path class="cls-15" d="M1211.40645,877.504c0,3.5005-3.78371,6.3382-8.45117,6.3382s-8.451-2.8377-8.451-6.3382,3.7837-6.3382,8.451-6.3382S1211.40645,874.00345,1211.40645,877.504Z"/><ellipse class="cls-15" cx="1446.01214" cy="732.95225" rx="8.45117" ry="6.3382"/><path class="cls-15" d="M1553.15937,603.69615c0,3.5005-3.7837,6.3382-8.45117,6.3382s-8.45111-2.8377-8.45111-6.3382,3.7837-6.3381,8.45111-6.3381S1553.15937,600.19575,1553.15937,603.69615Z"/></g><g class="cls-6"><path class="cls-16" d="M96.82041,478.79175c-46.40675-20.434-15.17082-97.0962,28.23372-102.1474s73.33856,34.7974,73.33856,34.7974,18.70878-24.1337,54.62978-20.7662,49.3971,52.6031,49.3971,52.6031,21.41966-11.3722,38.63187-1.6096,21.23058,21.4077,21.23058,21.4077l73.72431,17.5102S164.376,508.538,96.82041,478.79175Z"/><path class="cls-17" d="M1158.23364,583.50735c42.96266,8.7285,181.38556,30.5612,321.80117-14.9953h-36.14033s-10.11935-28.934-27.46676-28.934-20.23856,11.4158-20.23856,11.4158-5.78256-59.3065-60.71595-78.2633-89.49794,37.4908-89.49794,37.4908-18.52264-16.4174-48.83255-6.503c-33.30692,10.8948-27.9153,47.2755-27.9153,47.2755s-37.14437-2.3847-32.79411,15.8742C1138.33176,574.83635,1147.00933,581.227,1158.23364,583.50735Z"/></g><path class="cls-18" d="M581.89864,496.64353a6.47286,6.47286,0,0,1-2.74129-2.74395,3.097,3.097,0,0,1-.437-1.74491,2.386,2.386,0,0,1,1.88635-1.94668,3.599,3.599,0,0,1,3.93092,2.07221,5.07591,5.07591,0,0,1-.19383-2.72816,3.01059,3.01059,0,0,1,1.52225-2.07221c1.38931-.6496,3.05723.43743,3.68687,1.96863a8.21814,8.21814,0,0,1,.064,4.95362,37.8716,37.8716,0,0,0-1.13786,4.861c-.45525-.83847-1.93105-1.21256-2.71687-1.453A23.18072,23.18072,0,0,1,581.89864,496.64353Z"/><path class="cls-19" d="M692.67491,443.08819c.51579-1.41741,2.00055-2.44129,3.28993-1.93262a2.65995,2.65995,0,0,1,1.28749,3.27283,5.72014,5.72014,0,0,1,1.70232-1.87255,1.693,1.693,0,0,1,2.21089.30593,2.78966,2.78966,0,0,1,.42205,1.11571,4.16606,4.16606,0,0,1-.0313,2.216,4.47634,4.47634,0,0,1-1.29643,1.67926q-1.851,1.725-3.70236,3.44976c-.92356.86062-1.41854,1.38392-2.01894.00328-.53437-1.22835-1.02625-2.53987-1.52914-3.78959a7.86129,7.86129,0,0,1-.58716-2.31287C692.36276,444.4594,692.67491,443.79324,692.67491,443.08819Z"/><path class="cls-20" d="M776.3021,469.84824a6.53086,6.53086,0,0,1-.371-3.34522,3.32416,3.32416,0,0,1,1.84628-2.53428,2.0511,2.0511,0,0,1,2.60009,1.11591,4.52446,4.52446,0,0,1,.102,2.23874,5.62681,5.62681,0,0,1,1.64677-1.28514,2.2066,2.2066,0,0,1,1.95979-.02c1.19617.64613,1.42164,2.59724.74659,3.87776a5.641,5.641,0,0,1-3.217,2.46228,17.22168,17.22168,0,0,0-3.73486,1.52215C778.32173,473.58738,776.43848,470.232,776.3021,469.84824Z"/><path class="cls-21" d="M657.158,480.29593a2.62444,2.62444,0,0,1-.4298-2.2324,1.77265,1.77265,0,0,1,1.58916-1.34194,1.53558,1.53558,0,0,1,1.4237,1.4615,2.27117,2.27117,0,0,1,1.46825-2.12,1.3292,1.3292,0,0,1,1.28027.08625,2.04145,2.04145,0,0,1,.61141,1.3121,2.75011,2.75011,0,0,1-.0227,1.30921,3.43759,3.43759,0,0,1-.49686.85907,10.76077,10.76077,0,0,0-1.71059,4.15867C661.11231,482.47788,657.75789,481.09878,657.158,480.29593Z"/><path class="cls-22" d="M568.42729,463.54267a1.10574,1.10574,0,0,1-.01669-.954.86806.86806,0,0,1,1.0087-.37313,2.64426,2.64426,0,0,1,.97517.63747.51116.51116,0,0,1,.2284.41009,1.75141,1.75141,0,0,1,.25832-1.57952,1.99446,1.99446,0,0,1,1.30434-.76319.362.362,0,0,1,.27535.036.4661.4661,0,0,1,.13949.23739,4.76274,4.76274,0,0,1,.21188,2.0287c-.1025.91067-.39281,3.455-1.42783,3.0597a7.18989,7.18989,0,0,1-1.47461-1.22893A4.80424,4.80424,0,0,1,568.42729,463.54267Z"/><path class="cls-23" d="M727.66125,424.95853a.98786.98786,0,0,1,.52645-.75029.87466.87466,0,0,1,.992.42588,3.24617,3.24617,0,0,1,.39452,1.18445.55025.55025,0,0,1-.055.4792,1.48845,1.48845,0,0,1,1.093-1.04005,1.87763,1.87763,0,0,1,1.44143.33327.43037.43037,0,0,1,.19278.223.509.509,0,0,1-.02631.28264,4.37066,4.37066,0,0,1-.98256,1.72084c-.59438.63246-2.25766,2.39662-2.83537,1.35734a8.67244,8.67244,0,0,1-.447-1.99616A5.67284,5.67284,0,0,1,727.66125,424.95853Z"/><path class="cls-24" d="M547.87509,520.1369a1.03919,1.03919,0,0,1-.3942-.84578.97987.97987,0,0,1,.75468-.83693,2.41446,2.41446,0,0,1,1.12668.08471c.14774.03485.31972.0928.36753.25318a1.72951,1.72951,0,0,1-.39711-1.54314,2.30472,2.30472,0,0,1,.8644-1.33366.376.376,0,0,1,.26073-.10493.4025.4025,0,0,1,.21929.14325,4.35778,4.35778,0,0,1,.99683,1.71044c.27053.86677,1.0228,3.28939-.06106,3.4515a6.39312,6.39312,0,0,1-1.80929-.36523A4.20839,4.20839,0,0,1,547.87509,520.1369Z"/><path class="cls-25" d="M647.92835,443.87815a1.99335,1.99335,0,0,1-.2972-.71756,1.36551,1.36551,0,0,1,1.07888-1.49635,1.85565,1.85565,0,0,1,1.68254.824,1.34141,1.34141,0,0,1-.0129-1.27533,1.85825,1.85825,0,0,1,.91773-.83019,1.122,1.122,0,0,1,.52868-.12052,1.03527,1.03527,0,0,1,.65631.355,3.06775,3.06775,0,0,1,.26192,3.099c-.38938,1.00385-.98221,1.91029-1.4268,2.88334C650.08918,445.82329,648.76265,445.24473,647.92835,443.87815Z"/><path class="cls-26" d="M770.43014,430.8956a1.98906,1.98906,0,0,1,.30063-.71563,1.15032,1.15032,0,0,1,1.71746-.03466,2.34753,2.34753,0,0,1,.5158,1.97306,1.1329,1.1329,0,0,1,.86509-.82981,1.64356,1.64356,0,0,1,1.158.25472,1.27149,1.27149,0,0,1,.42188.37639,1.315,1.315,0,0,1,.17818.79131,2.6721,2.6721,0,0,1-1.95428,2.21429c-.9375.31017-1.939.38333-2.89091.62631C770.48517,433.999,770.02994,432.489,770.43014,430.8956Z"/><path class="cls-27" d="M672.28936,416.19549a2.06964,2.06964,0,0,1-.16407-.76935,1.29247,1.29247,0,0,1,1.32274-1.22662,1.96025,1.96025,0,0,1,1.503,1.18157,1.329,1.329,0,0,1,.21344-1.253,1.74905,1.74905,0,0,1,1.04671-.60974.94369.94369,0,0,1,1.12.49326,3.0686,3.0686,0,0,1-.29289,3.09571c-.55982.89719-1.30158,1.65384-1.90991,2.50867C674.0622,418.5821,672.86466,417.72014,672.28936,416.19549Z"/><path class="cls-28" d="M644.07327,565.23532a30.98876,30.98876,0,0,0-22.46658-12.65659c-1.34768-.08645-2.89987.02561-3.73383,1.21391-1.01007,1.43955-.29117,3.701,1.03175,4.77726a9.66252,9.66252,0,0,0,4.64346,1.59031,48.69921,48.69921,0,0,1,18.69991,7.59264,13.40287,13.40287,0,0,1,5.11316,5.33734C646.27349,570.503,645.74928,567.4835,644.07327,565.23532Z"/><path class="cls-29" d="M641.795,517.97151c.599-3.43456,1.22867-6.9571,2.89092-9.92092,1.66225-2.96363,4.612-5.28863,7.72442-4.96287a2.43865,2.43865,0,0,1,1.42422.54467,2.94142,2.94142,0,0,1,.73405,2.29016c-.11266,2.64383-1.94225,4.73029-3.55531,6.66522a65.036,65.036,0,0,0-9.83917,16.187c.21636-.50905-.59317-3.516-.50633-4.50387C640.85076,522.18678,641.43552,520.03159,641.795,517.97151Z"/><path class="cls-30" d="M621.66121,524.81656a6.871,6.871,0,0,0-3.38246.2449,3.37049,3.37049,0,0,0-2.128,2.73278c-.13465,1.615,1.05824,2.96709,2.25113,3.88777a16.61216,16.61216,0,0,0,6.94792,3.17734c1.853.36061,3.74671.38545,5.60589.70428,4.97883.85329,9.44824,3.67426,13.78316,6.29364.02425-3.80884-5.10972-8.31579-7.58409-10.33024A30.209,30.209,0,0,0,621.66121,524.81656Z"/><path class="cls-31" d="M652.49459,543.50187c2.61023-3.68158,6.17431-6.634,10.25761-7.72858a5.76227,5.76227,0,0,1,3.27412-.09722,3.21563,3.21563,0,0,1,2.19367,2.51329c.29737,2.1009-1.63335,3.65482-3.28373,4.70873-7.46026,4.764-14.86118,11.08092-17.52731,20.22035.31817-1.09068-.535-3.97479-.47709-5.33445a16.13979,16.13979,0,0,1,.831-4.53294A35.91965,35.91965,0,0,1,652.49459,543.50187Z"/><path class="cls-32" d="M636.73478,452.02143c-2.269-4.04911-6.28988-9.72338-13.865-8.394-7.22912,1.26878-10.73214,8.97675-10.32091,12.42556-2.01122-2.65289-9.46941-4.90742-15.15511.24913-5.95778,5.40338-4.8899,12.54685-3.72556,17.14564,1.42559,5.63172,5.28187,10.13,9.58772,13.451a29.17488,29.17488,0,0,0,4.08915,2.68658c5.80712,3.089,13.93778,4.43379,20.36405,4.65424,4.16018-5.48732,8.71713-13.14447,10.56032-20.03957a36.77967,36.77967,0,0,0,.959-5.19814C639.9119,463.19842,639.51357,456.97987,636.73478,452.02143Z"/><path class="cls-33" d="M613.46348,498.46487a11.45165,11.45165,0,0,1-3.67879.76627,3.19858,3.19858,0,0,1-2.97881-2.12439,33.01807,33.01807,0,0,1,11.13165-1.76281,11.16457,11.16457,0,0,1-8.62529-2.9386,1.09325,1.09325,0,0,1-.406-.61783c-.08016-.5643.56015-.88275,1.06665-.95168,3.423-.46573,6.76045,1.192,9.89111,2.81018-4.47509-4.94149-8.90511-5.69371-8.11931-6.23376a2.77525,2.77525,0,0,1,2.73768-1.03581,7.24209,7.24209,0,0,1,2.77483,1.29419,42.98823,42.98823,0,0,1,7.125,5.99733c-2.47832-2.71661-7.83879-8.86489-5.53916-9.58861,1.18551-1.10955,6.83783,5.49521,8.86091,9.57071q-.18961-4.53786-.37957-9.07552a3.93546,3.93546,0,0,1,.1627-1.63844,1.07015,1.07015,0,0,1,1.187-.75414c1.138-.52831,1.125,6.74609,1.03914,10.16736.41-5.4827,2.49225-15.53724,5.12175-15.157.89761.41895-.07774,3.56952-.5648,5.28478l-1.67068,5.88393a15.50144,15.50144,0,0,1,6.81961-9.12673c.53522-.31459,1.24673-.56835,1.69475-.114a1.33138,1.33138,0,0,1,.141,1.41511,3.68926,3.68926,0,0,1-.91067,1.125,36.03256,36.03256,0,0,0-5.92682,7.43342c2.40334-2.42916,5.09217-4.99482,8.32793-5.13171.932-.03928,2.14879.51367,2.01275,1.54641-.11315.85888-1.057,1.15922-1.81428,1.346-5.4874,1.35388-9.95664,6.84351-10.65336,13.08536a17.67052,17.67052,0,0,0-3.87279-1.30267l2.45081,2.3612q-3.21623-1.25655-6.43264-2.51272a8.43757,8.43757,0,0,1,1.78643,2.16539C623.6449,496.20552,617.28021,497.34068,613.46348,498.46487Z"/><path class="cls-34" d="M642.89138,588.68307c7.68642-17.93405,3.94657-65.71038-17.03061-94.89863"/><path class="cls-35" d="M636.00057,501.91213c-.12262-1.705-.68467-3.33271-.91289-5.02428a12.8615,12.8615,0,0,1,1.28215-7.53874,11.74265,11.74265,0,0,0-3.94,6.94189,30.36532,30.36532,0,0,0-.54812-6.13711,20.21,20.21,0,0,0-1.96821,6.78247,15.95976,15.95976,0,0,0-2.58943-4.22662,11.64777,11.64777,0,0,0,.19228,4.30691,8.73186,8.73186,0,0,0-6.26477-2.72893q1.87189,1.78274,3.744,3.56548a4.3041,4.3041,0,0,0-5.74109.88795,10.06952,10.06952,0,0,1,8.69821,5.50792c.77514,1.464,1.44176,3.30691,2.91466,3.72855C633.98627,508.87077,636.2116,504.85015,636.00057,501.91213Z"/><path class="cls-36" d="M678.188,587.53905c2.13607-6.25648,6.52638-11.21222,11.8356-13.35971a2.4031,2.4031,0,0,1,2.56465.07316,2.96658,2.96658,0,0,1,.2124,3.51427,6.4441,6.4441,0,0,1-2.63086,2.05218,33.00162,33.00162,0,0,0-10.38146,9.08611,10.142,10.142,0,0,0-2.25094,4.73895C677.75457,591.63226,677.53993,589.43721,678.188,587.53905Z"/><path class="cls-37" d="M671.10438,554.39661a22.56455,22.56455,0,0,0-3.60381-6.26534c-1.57832-1.70775-3.8506-2.70987-5.74744-1.846a1.64339,1.64339,0,0,0-.79664.66866,2.32363,2.32363,0,0,0-.04867,1.73394c.5471,1.80459,2.07243,2.87159,3.43475,3.87834a43.773,43.773,0,0,1,9.09824,9.17178c-.22771-.30747-.2609-2.55257-.49326-3.21758C672.45689,557.11707,671.70134,555.74721,671.10438,554.39661Z"/><path class="cls-38" d="M684.98763,554.99769a4.16659,4.16659,0,0,1,2.16927-.52484,2.20307,2.20307,0,0,1,1.82942,1.45264,3.72661,3.72661,0,0,1-.71392,3.14962,11.39944,11.39944,0,0,1-3.793,3.62227c-1.09933.62958-2.28465,1.03524-3.39535,1.63709-2.97451,1.61167-5.27448,4.47884-7.52613,7.17928-.70136-2.62824,1.7123-6.7973,2.904-8.69777A20.60462,20.60462,0,0,1,684.98763,554.99769Z"/><path class="cls-39" d="M668.98138,574.2421a11.75557,11.75557,0,0,0-7.83743-3.23817,3.5227,3.5227,0,0,0-2.07448.60455,2.43658,2.43658,0,0,0-.92565,2.18753c.19177,1.51349,1.68478,2.19158,2.91156,2.58165,5.54553,1.76262,11.33356,4.61111,14.65549,10.38241-.39644-.68868-.38009-2.85754-.66147-3.78573a12.01609,12.01609,0,0,0-1.33873-2.96324A24.86217,24.86217,0,0,0,668.98138,574.2421Z"/><path class="cls-40" d="M662.402,507.76507c.696-3.26494,2.2-8.01275,7.199-8.64791,4.77073-.60628,8.36043,4.00368,8.72332,6.47231.78564-2.24664,5.06552-5.33561,9.56692-2.93725,4.71673,2.51291,5.33278,7.67062,5.42978,11.08881a19.66512,19.66512,0,0,1-3.6007,11.26633,20.94629,20.94629,0,0,1-2.08517,2.69639c-3.09214,3.32713-7.95831,5.92514-11.95632,7.39607-3.60243-2.93994-7.845-7.29846-10.2454-11.6872a27.394,27.394,0,0,1-1.53911-3.39682C662.41941,516.144,661.54933,511.76316,662.402,507.76507Z"/><path class="cls-41" d="M685.39077,535.0977a6.82219,6.82219,0,0,0,2.44943-.22506,2.30146,2.30146,0,0,0,1.48872-2.07972,19.76432,19.76432,0,0,0-7.31149,1.06546,7.44548,7.44548,0,0,0,4.88976-3.80152.851.851,0,0,0,.14394-.5104c-.05143-.40662-.511-.49538-.8417-.43916-2.23461.38044-4.03291,2.21122-5.70823,3.97249,1.92143-4.33464,4.56917-5.76341,3.97821-5.97577a1.67029,1.67029,0,0,0-1.90664-.15422,4.98144,4.98144,0,0,0-1.51038,1.4642,31.81409,31.81409,0,0,0-3.39622,5.608c1.06769-2.38661,3.32812-7.737,1.75289-7.76553-.94489-.52388-3.30627,5.202-3.84321,8.43477q-.6981-3.17618-1.39653-6.35217a2.98708,2.98708,0,0,0-.39729-1.09935c-.22-.30728-.60917-.48-.88177-.27763-.81023-.13188.50856,4.89452,1.17879,7.24224-1.24535-3.70641-4.365-10.23012-5.94866-9.42766-.48844.47382.6919,2.45169,1.30692,3.53757q1.05488,1.86244,2.10977,3.72508a10.15924,10.15924,0,0,0-5.92907-4.9103c-.39282-.10782-.88573-.13728-1.08524.26877a1.032,1.032,0,0,0,.16632,1.00732,2.39171,2.39171,0,0,0,.77479.59088,23.38235,23.38235,0,0,1,5.06311,3.92281c-1.94774-1.18618-4.09929-2.40817-6.15694-1.83886-.59266.164-1.25756.79592-.986,1.4821.22565.57047.87285.58433,1.38226.55815,3.69169-.18984,7.4888,2.68811,9.05113,6.86045a11.76492,11.76492,0,0,1,2.1985-1.69523q-.55723,1.06738-1.11447,2.13516,1.79449-1.52859,3.589-3.057a6.48808,6.48808,0,0,0-.73233,1.8635C678.58664,535.62505,682.79016,535.10386,685.39077,535.0977Z"/><path class="cls-42" d="M683.155,603.50679c-8.06032-10.8212-14.31822-44.61786-6.39668-69.10085"/><path class="cls-43" d="M671.85166,542.10544c-.23012-1.2039-.17027-2.44456-.33159-3.66078a9.58829,9.58829,0,0,0-2.16376-4.94862,7.96982,7.96982,0,0,1,3.72625,3.99059,23.7783,23.7783,0,0,1-.76138-4.35524,14.66924,14.66924,0,0,1,2.45855,4.28515,12.5284,12.5284,0,0,1,.8656-3.45342,9.06523,9.06523,0,0,1,.6551,3.017,5.95855,5.95855,0,0,1,3.44454-3.17214q-.85519,1.61668-1.71006,3.23317a2.64285,2.64285,0,0,1,3.76719-.56412,7.15224,7.15224,0,0,0-4.47284,5.59264c-.22325,1.17116-.3101,2.582-1.15954,3.17579C674.37091,546.50284,672.24843,544.18,671.85166,542.10544Z"/><ellipse class="cls-44" cx="738.05396" cy="472.8187" rx="31.1723" ry="25.8528" transform="translate(189.33835 1156.33341) rotate(-83.88781)"/><path class="cls-45" d="M750.6173,472.71445c-.30732.5154-.73747,1.06835-1.28972,1.02407-.51011-.041-.88057-.61533-.93664-1.18426a4.11711,4.11711,0,0,1,.3008-1.6677c.39506-1.19908,2.33644-9.45442,4.22039-6.71682C754.23143,466.08658,751.54087,471.16554,750.6173,472.71445Z"/><path class="cls-45" d="M739.11416,466.57483c-.31955.536-.76671,1.11091-1.3408,1.0647-.53041-.04255-.91566-.63959-.974-1.23123a4.28066,4.28066,0,0,1,.31284-1.73394c.41071-1.24663,2.42914-9.83,4.38806-6.98367C742.8719,459.68358,740.07454,464.96431,739.11416,466.57483Z"/><path class="cls-45" d="M739.80641,487.75091a13.69439,13.69439,0,0,1-5.49049-2.35138c-2.19713-1.61571-4.4964-3.20005-7.28569-9.8672a25.0125,25.0125,0,0,1-.80765-6.63269.52674.52674,0,0,0-.64564.25992,1.82739,1.82739,0,0,0-.20655.7913,20.148,20.148,0,0,0,4.24342,13.78752,17.83418,17.83418,0,0,0,2.3354,2.57433,13.4908,13.4908,0,0,0,9.46149,3.39566,15.65543,15.65543,0,0,0,9.386-3.82347,2.62876,2.62876,0,0,0,.76534-.9022c.11074-.24952.22907-1.041-.118-1.17809-.30459-.12033-.3579.32191-.576.49134A15.939,15.939,0,0,1,739.80641,487.75091Z"/><path class="cls-46" d="M710.05964,489.22531a1.34567,1.34567,0,0,1-.228-1.24028.946.946,0,0,1,.716-.47016,3.5447,3.5447,0,0,1,2.28742.6315,23.04815,23.04815,0,0,1,5.99544,4.91762,47.65889,47.65889,0,0,1-2.44083-4.95459,1.04007,1.04007,0,0,1-.0571-.97709.67037.67037,0,0,1,.3567-.22333c1.14079-.35426,2.29069.51636,3.10917,1.474a13.68734,13.68734,0,0,1,2.73424,5.181q.1762-2.27919.35274-4.55817a4.7541,4.7541,0,0,1,.36066-1.75049,1.29292,1.29292,0,0,1,1.32378-.81575c.604.13765.93595.85868,1.12754,1.51444a12.8168,12.8168,0,0,1,.22376,6.21894,10.84151,10.84151,0,0,1,4.1373-4.08531,2.25373,2.25373,0,0,1,1.321-.36408,1.05644,1.05644,0,0,1,.92185.96863,1.71108,1.71108,0,0,1-.54246,1.108,35.77516,35.77516,0,0,1-3.09988,3.46209,10.71113,10.71113,0,0,1,5.99441-2.33521,2.26908,2.26908,0,0,1,1.38363.31595,1.18516,1.18516,0,0,1,.43066,1.37717,1.42094,1.42094,0,0,1-1.15369.64883,10.32,10.32,0,0,0-4.76247,1.83308c1.51709-.23642,3.07649-.82095,4.60235-.67116a6.4853,6.4853,0,0,1,4.17239,1.90971c.20709.22238.40847.56739.25592.83944a.64774.64774,0,0,1-.37579.25934c-.89123.32152-2.29583-.04948-3.232-.0722-.2683-.00635-2.35174-.1315-3.08681.79a23.61885,23.61885,0,0,1,7.97071,1.268,4.589,4.589,0,0,1,2.92016,2.68427c.168.54351.10078,1.30112-.38525,1.48826a1.04767,1.04767,0,0,1-.94266-.27109c-.75313-.547-1.411-1.24971-2.183-1.76261a2.86494,2.86494,0,0,0-2.56965-.49462,6.66767,6.66767,0,0,1,5.25573,4.30711,1.46878,1.46878,0,0,1-.05194,1.49712.82511.82511,0,0,1-1.11619-.0618,3.69361,3.69361,0,0,1-.72063-1.08414,8.55521,8.55521,0,0,0-6.16158-4.50176,30.51555,30.51555,0,0,0-4.04925-.02907,3.34589,3.34589,0,0,1-1.181-.16866,4.80807,4.80807,0,0,1-1.338-.95553,29.181,29.181,0,0,0-5.2-3.40144,5.96377,5.96377,0,0,1-2.21674-1.73952c-.24576-.36388-.42274-.78456-.69344-1.12611-.33486-.4226-.83173-.50693-1.22816-.81171-.40709-.313-.737-.74837-1.16366-1.05256A13.72048,13.72048,0,0,0,715.078,492.538C713.2665,491.78328,711.22932,491.079,710.05964,489.22531Z"/><path class="cls-47" d="M725.81274,503.99166C712.61037,532.879,709.92291,567.578,718.487,598.578"/><path class="cls-48" d="M720.336,499.20476a13.59116,13.59116,0,0,0-.38645-1.89546,4.67382,4.67382,0,0,0-1.61185-2.0339,9.0155,9.0155,0,0,0-4.05235-1.80517c2.83863-.46092,4.69007.99693,6.19856,2.92281-.75709-1.728-2.33472-2.6138-3.92731-3.33848a7.03471,7.03471,0,0,1,7.151,4.5572q-.357-1.96064-.71424-3.92127a7.04451,7.04451,0,0,1,3.62924,4.81115,8.59455,8.59455,0,0,1,2.20555-3.08858,17.505,17.505,0,0,1-.31026,4.18947,9.504,9.504,0,0,1,4.8992-1.3119q-1.61391,1.4177-3.228,2.8354a6.67644,6.67644,0,0,1,6.09,1.39354q-1.84842.21746-3.69685.43512a8.997,8.997,0,0,1,6.747,1.94456,10.74633,10.74633,0,0,0-5.41637.16076c-1.11.32441-2.17649.8275-3.2999,1.08741A8.82191,8.82191,0,0,1,720.336,499.20476Z"/><path class="cls-49" d="M715.62478,521.00637a18.38218,18.38218,0,0,0-4.96921-7.72857,42.79131,42.79131,0,0,0-7.17819-5.28593c-1.853-1.15692-3.80451-2.31307-5.92442-2.41376-.39366,3.19948-.766,6.58956.38473,9.55107a16.9663,16.9663,0,0,0,3.30077,4.88489c3.58488,4.10668,7.42534,8.125,12.04008,10.74033,1.98317,1.124,3.53021,2.2322,3.31555-.89854C716.39029,526.88145,716.50569,523.87046,715.62478,521.00637Z"/><path class="cls-50" d="M706.77384,542.08253a24.1878,24.1878,0,0,0-6.50728-3.677c-3.68756-1.21179-7.62759-.73412-11.446-.24587,1.5092,1.69062,1.833,4.25262,2.69864,6.43727a15.70336,15.70336,0,0,0,8.24641,8.13539,22.49156,22.49156,0,0,0,11.73927,2.00887c1.14165-.1161,2.46887-.48114,2.90176-1.66944.67384-1.84926-1.314-4.82039-2.32044-6.1323A25.15157,25.15157,0,0,0,706.77384,542.08253Z"/><path class="cls-51" d="M710.14065,569.008c-3.66263-2.15865-7.44736-4.35909-11.56934-4.78054a28.354,28.354,0,0,0-8.29835.79592q-2.11055.41444-4.22142.829c4.03584,3.54315,8.16265,7.14386,12.98929,9.08726a16.03145,16.03145,0,0,0,11.4658.50829c1.20444-.4461,4.32477-1.51387,3.54911-3.43841C713.5121,570.66065,711.2264,569.64793,710.14065,569.008Z"/><path class="cls-52" d="M725.01541,524.05452a29.42764,29.42764,0,0,1,9.9341-1.94648c2.3115-.12515,4.77572-.09454,6.731,1.29111a20.58455,20.58455,0,0,1-9.9931,8.88741,19.60116,19.60116,0,0,1-7.48329,1.9565,11.66436,11.66436,0,0,1-7.31872-2.16077A15.35129,15.35129,0,0,1,725.01541,524.05452Z"/><path class="cls-53" d="M724.86612,544.31261a26.46038,26.46038,0,0,1,12.93873-1.08741c-1.57215,2.9307-3.23027,5.96326-5.79132,7.82541a16.81075,16.81075,0,0,1-5.23629,2.31942c-1.59707.47324-13.12463,2.98462-12.37-.56161.35566-1.671,3.18965-3.94053,4.34351-4.92494A20.175,20.175,0,0,1,724.86612,544.31261Z"/><path class="cls-54" d="M723.98865,561.6891a19.37664,19.37664,0,0,1,13.34219-2.05373,20.59982,20.59982,0,0,1-9.10875,11.93306,17.18613,17.18613,0,0,1-7.257,2.26031c-1.17777.0928-6.29109.4099-6.61407-1.25645-.29669-1.52966,2.87181-5.01813,3.73828-6.02814A21.62889,21.62889,0,0,1,723.98865,561.6891Z"/><path class="cls-55" d="M592.19959,514.08143c4.78278,9.07282,2.59786,20.43252-4.87994,25.37248-7.478,4.94-17.41724,1.58953-22.2-7.48329-4.78277-9.073-2.59785-20.43272,4.88012-25.37267C577.47756,501.658,587.41682,505.00841,592.19959,514.08143Z"/><path class="cls-45" d="M571.2673,525.29018c.2566.24567.59077.49077.90843.36254a.809.809,0,0,0,.3751-.8687,2.38219,2.38219,0,0,0-.42291-.92357c-.40916-.63092-2.76828-5.119-3.47034-3.1629C568.16621,522.06741,570.49611,524.55164,571.2673,525.29018Z"/><path class="cls-45" d="M577.11484,519.55585c.26675.25568.61433.5104.94455.377a.84127.84127,0,0,0,.39006-.90316,2.47959,2.47959,0,0,0-.43977-.96034c-.42532-.656-2.87836-5.32233-3.6081-3.28843C573.89044,516.205,576.31305,518.788,577.11484,519.55585Z"/><path class="cls-45" d="M579.83618,532.11829a9.05416,9.05416,0,0,0,2.87664-2.397c1.05135-1.35542,2.16755-2.71141,2.82058-7.14251a15.27246,15.27246,0,0,0-.50547-4.04411.311.311,0,0,1,.41741.03312,1.04928,1.04928,0,0,1,.23838.42645,12.668,12.668,0,0,1-.45525,8.88126,11.86353,11.86353,0,0,1-.99116,1.944,8.85118,8.85118,0,0,1-5.054,3.74511,9.17565,9.17565,0,0,1-6.0761-.5077,1.46823,1.46823,0,0,1-.5827-.38815c-.10181-.12591-.28825-.56873-.10457-.71351.161-.12707.25764.12283.4107.18194A9.5224,9.5224,0,0,0,579.83618,532.11829Z"/><path class="cls-56" d="M597.52085,527.47791a.82847.82847,0,0,0-.04936-.77051.54129.54129,0,0,0-.49-.14362,2.30865,2.30865,0,0,0-1.24965.79419,15.39236,15.39236,0,0,0-2.79409,3.99732,30.79243,30.79243,0,0,0,.70136-3.361c.03147-.20793.04385-.464-.11076-.58433a.38373.38373,0,0,0-.2425-.06508c-.72217.00308-1.26873.72719-1.6079,1.4411a8.85855,8.85855,0,0,0-.84016,3.54815q-.44037-1.30536-.88057-2.61111a2.74123,2.74123,0,0,0-.47021-.96111.74594.74594,0,0,0-.89794-.23393,1.29218,1.29218,0,0,0-.43821,1.098,7.69637,7.69637,0,0,0,.787,3.69293,6.07011,6.07011,0,0,0-3.03264-1.63285,1.34707,1.34707,0,0,0-.82948.03061.695.695,0,0,0-.39833.73951.96245.96245,0,0,0,.48225.55006,19.92173,19.92173,0,0,0,2.33162,1.45919,6.29208,6.29208,0,0,0-3.86488-.26165,1.471,1.471,0,0,0-.76568.44167.74322.74322,0,0,0-.04953.88834.82.82,0,0,0,.77343.1675,6.06414,6.06414,0,0,1,3.0672.19465,11.53689,11.53689,0,0,0-2.80166.45783,4.28821,4.28821,0,0,0-2.16789,1.89374c-.08875.16885-.156.40874-.02631.54024a.369.369,0,0,0,.259.08279,6.44048,6.44048,0,0,0,1.8872-.64055c.15651-.05353,1.36145-.51271,1.929-.10763a15.18877,15.18877,0,0,0-4.4928,2.21988,3.04737,3.04737,0,0,0-1.31827,2.11669c-.01841.35021.13311.78263.446.80266.20483.01309.3782-.16115.51355-.33385.36134-.46053.64392-.99481,1.02143-1.439a1.84351,1.84351,0,0,1,1.43592-.76608,4.42243,4.42243,0,0,0-2.45,3.502c-.03835.32306-.00877.72353.25162.86947a.51822.51822,0,0,0,.64633-.243,2.42335,2.42335,0,0,0,.263-.76993,5.68607,5.68607,0,0,1,2.95318-3.78381,19.16505,19.16505,0,0,1,2.37324-.76665,2.1467,2.1467,0,0,0,.66851-.31749,3.21112,3.21112,0,0,0,.64462-.80882,19.49477,19.49477,0,0,1,2.55089-2.95978A3.97958,3.97958,0,0,0,592.283,534.013c.09063-.25934.13243-.53909.24095-.78977.13415-.31016.41345-.45148.60126-.70389.1928-.25915.32231-.57586.52783-.83346a9.12869,9.12869,0,0,1,1.41029-1.33405A6.47839,6.47839,0,0,0,597.52085,527.47791Z"/><path class="cls-57" d="M590.45187,539.06422c12.01909,14.51856,18.72226,34.39563,18.27252,54.18356"/><path class="cls-58" d="M592.9608,535.23979a8.39035,8.39035,0,0,1-.05314-1.18445,3.08423,3.08423,0,0,1,.646-1.49269,5.96888,5.96888,0,0,1,2.11285-1.81017,4.11522,4.11522,0,0,0-3.20789,2.8637,4.67773,4.67773,0,0,1,1.81291-2.68715,4.64406,4.64406,0,0,0-3.52589,3.99944q-.08-1.21728-.15978-2.43475a4.62931,4.62931,0,0,0-1.42043,3.49675,4.79186,4.79186,0,0,0-1.75134-1.40528,10.30583,10.30583,0,0,0,.80111,2.40259,5.68624,5.68624,0,0,0-3.07047.1365l2.31408,1.06739a4.31469,4.31469,0,0,0-3.37008,1.94553q1.11757-.21429,2.235-.42877a5.86186,5.86186,0,0,0-3.67449,2.39066,6.7021,6.7021,0,0,1,3.20428-.90817c.69965-.01483,1.40014.08317,2.09806.02772A5.79842,5.79842,0,0,0,592.9608,535.23979Z"/><path class="cls-59" d="M598.94731,547.16939a12.02469,12.02469,0,0,1,1.7761-5.45806,28.61391,28.61391,0,0,1,3.43424-4.43244,8.47546,8.47546,0,0,1,3.12223-2.51388,11.9619,11.9619,0,0,1,1.18481,5.67947,11.13537,11.13537,0,0,1-1.21663,3.47922,32.42636,32.42636,0,0,1-5.48327,8.53508c-.99856,1.02716-1.74326,1.9642-2.07966.08626A23.547,23.547,0,0,1,598.94731,547.16939Z"/><path class="cls-60" d="M607.25735,557.90644a16.11717,16.11717,0,0,1,3.27788-3.36351,16.34709,16.34709,0,0,1,6.6846-2.263c-.63635,1.27205-.4482,2.83637-.63377,4.27939a10.42956,10.42956,0,0,1-3.64061,6.30345,14.47114,14.47114,0,0,1-6.59619,3.35235,1.81736,1.81736,0,0,1-1.9505-.443c-.66886-.96112.05951-3.07376.4568-4.03025A16.79271,16.79271,0,0,1,607.25735,557.90644Z"/><path class="cls-61" d="M609.25755,574.33991c1.83183-1.94552,3.729-3.938,6.08728-4.94862a17.479,17.479,0,0,1,4.99-1.06854q1.30073-.14758,2.60129-.29477c-1.84643,2.82751-3.73778,5.70565-6.2849,7.74032a10.11319,10.11319,0,0,1-6.65742,2.42088c-.77308-.03908-2.76313-.08837-2.59183-1.36216C607.52186,575.93426,608.71441,574.91673,609.25755,574.33991Z"/><path class="cls-62" d="M593.88334,550.69732a17.82374,17.82374,0,0,0-6.12048.69581,6.69929,6.69929,0,0,0-3.76169,2.00405,11.57872,11.57872,0,0,0,7.18043,3.3689,11.73982,11.73982,0,0,0,4.68319-.23642,7.61235,7.61235,0,0,0,3.97822-2.62343A8.61679,8.61679,0,0,0,593.88334,550.69732Z"/><path class="cls-63" d="M596.96327,562.56492a16.34281,16.34281,0,0,0-7.758,1.75646,12.45268,12.45268,0,0,0,4.55643,3.52293,9.79363,9.79363,0,0,0,3.4172.39276c1.00767-.01771,8.14751-.67694,7.18043-2.61958-.45559-.91529-2.45493-1.72334-3.27771-2.0878A11.56146,11.56146,0,0,0,596.96327,562.56492Z"/><path class="cls-64" d="M600.0451,572.60559a11.82229,11.82229,0,0,0-8.13754,1.26378,11.513,11.513,0,0,0,7.111,5.32078,10.20769,10.20769,0,0,0,4.59513-.016c.70515-.16346,3.75447-.92377,3.698-1.96209-.05176-.953-2.42741-2.41491-3.08543-2.84753A12.177,12.177,0,0,0,600.0451,572.60559Z"/><ellipse class="cls-65" cx="779.47181" cy="513.13841" rx="19.02271" ry="15.76491" transform="translate(190.95669 1237.38787) rotate(-84.2607)"/><path class="cls-45" d="M787.1338,512.93837c-.183.31768-.44046.65961-.77772.63843-.31147-.01925-.54245-.36561-.58166-.71217a2.51667,2.51667,0,0,1,.16906-1.02041c.23064-.73547,1.343-5.79191,2.516-4.14269C789.28071,508.85633,787.68381,511.98342,787.1338,512.93837Z"/><path class="cls-45" d="M780.0643,509.3186c-.19022.33019-.458.68579-.80868.66384-.32385-.02021-.56394-.38-.6047-.74047a2.61851,2.61851,0,0,1,.17577-1.06084c.23974-.76493,1.39635-6.02217,2.61591-4.3075C782.29651,505.07445,780.63615,508.32572,780.0643,509.3186Z"/><path class="cls-45" d="M780.67021,522.22721a8.32436,8.32436,0,0,1-3.36922-1.37448c-1.35422-.96169-2.77035-1.90316-4.52943-5.93938a15.226,15.226,0,0,1-.55018-4.03679.32258.32258,0,0,0-.39162.16557,1.12142,1.12142,0,0,0-.11918.485,12.25449,12.25449,0,0,0,2.70792,8.36335,10.82157,10.82157,0,0,0,1.44675,1.54486,8.202,8.202,0,0,0,5.80042,1.96824,9.5862,9.5862,0,0,0,5.6919-2.434,1.61279,1.61279,0,0,0,.45884-.55872c.06536-.15326.13071-.63728-.08219-.71718-.18679-.07008-.21551.20023-.34708.30593A9.75,9.75,0,0,1,780.67021,522.22721Z"/><path class="cls-66" d="M762.53923,523.44978a.81961.81961,0,0,1-.15-.75414.58048.58048,0,0,1,.43273-.29457,2.15722,2.15722,0,0,1,1.40064.36041,13.98587,13.98587,0,0,1,3.69943,2.93437,28.97243,28.97243,0,0,1-1.53171-2.9954.63487.63487,0,0,1-.04334-.5955.41179.41179,0,0,1,.21568-.14016c.69275-.22834,1.40169.29015,1.90921.86543a8.3095,8.3095,0,0,1,1.71264,3.13036q.08772-1.392.17561-2.784a2.90556,2.90556,0,0,1,.20482-1.07163.79227.79227,0,0,1,.80043-.51213c.3696.0774.57822.51367.70086.91164a7.81311,7.81311,0,0,1,.19037,3.79074,6.6483,6.6483,0,0,1,2.48813-2.53679,1.37887,1.37887,0,0,1,.8025-.23643.64148.64148,0,0,1,.57081.58087,1.0484,1.0484,0,0,1-.32127.68156,21.95106,21.95106,0,0,1-1.86072,2.14537,6.55787,6.55787,0,0,1,3.636-1.48942,1.38025,1.38025,0,0,1,.84669.1777.721.721,0,0,1,.27467.8352.87089.87089,0,0,1-.6981.40836,6.32065,6.32065,0,0,0-2.889,1.16982,11.53417,11.53417,0,0,1,2.80148-.45938,3.94023,3.94023,0,0,1,2.5614,1.11957c.12813.13323.254.34155.16338.50905a.39662.39662,0,0,1-.22685.1623,6.23167,6.23167,0,0,1-1.97217-.00886c-.16355-.001-1.43557-.05467-1.87585.51541a14.3838,14.3838,0,0,1,4.87272.68676,2.78537,2.78537,0,0,1,1.80431,1.60551c.10732.32961.07275.79246-.222.91183a.63664.63664,0,0,1-.57718-.155c-.4642-.32538-.87163-.747-1.34681-1.05141a1.74537,1.74537,0,0,0-1.57163-.27378,4.04838,4.04838,0,0,1,3.243,2.5699.89627.89627,0,0,1-.01874.91375.5033.5033,0,0,1-.68141-.02541,2.24694,2.24694,0,0,1-.44889-.65345,5.19364,5.19364,0,0,0-3.79728-2.67887,18.62937,18.62937,0,0,0-2.47007.02618,2.03686,2.03686,0,0,1-.72164-.08991,2.91863,2.91863,0,0,1-.82452-.56835,17.72471,17.72471,0,0,0-3.20118-2.01811,3.61825,3.61825,0,0,1-1.36712-1.037c-.15324-.21929-.26486-.474-.43289-.67925-.20776-.25414-.51149-.30016-.75606-.48171-.2511-.18657-.4561-.4486-.7189-.62958a8.33786,8.33786,0,0,0-1.6925-.826A5.90062,5.90062,0,0,1,762.53923,523.44978Z"/><path class="cls-67" d="M772.27572,532.28521a86.26489,86.26489,0,0,0-3.648,57.77176"/><path class="cls-68" d="M768.89361,529.425a8.263,8.263,0,0,0-.252-1.15192,2.83893,2.83893,0,0,0-1.00079-1.22314,5.48177,5.48177,0,0,0-2.48744-1.057,3.7998,3.7998,0,0,1,3.80606,1.71545,4.26565,4.26565,0,0,0-2.4243-1.99346,4.273,4.273,0,0,1,4.40113,2.70178q-.23477-1.19215-.46952-2.38391a4.27635,4.27635,0,0,1,2.25524,2.89489,5.27044,5.27044,0,0,1,1.31863-1.90779,10.68589,10.68589,0,0,1-.15306,2.55874,5.8161,5.8161,0,0,1,2.97689-.85349l-1.9443,1.76473a4.06412,4.06412,0,0,1,3.72677.7836q-1.12554.15278-2.25113.30574a5.47362,5.47362,0,0,1,4.13216,1.11264,6.56008,6.56008,0,0,0-3.30233.15691c-.67418.21005-1.32034.5285-2.00329.69908A5.36006,5.36006,0,0,1,768.89361,529.425Z"/><path class="cls-69" d="M766.20925,542.77391a11.15916,11.15916,0,0,0-3.098-4.66,25.97585,25.97585,0,0,0-4.42418-3.14595,7.80469,7.80469,0,0,0-3.63442-1.408,12.1335,12.1335,0,0,0,.31749,5.82155,10.30091,10.30091,0,0,0,2.05558,2.94361,29.48228,29.48228,0,0,0,7.437,6.42013c1.21938.66385,2.17253,1.32307,2.01447-.58414A23.58028,23.58028,0,0,0,766.20925,542.77391Z"/><path class="cls-70" d="M760.99341,555.72545a14.68933,14.68933,0,0,0-4.00091-2.17213c-2.25973-.69908-4.65877-.36484-6.9835-.0256.93508,1.01483,1.15488,2.57394,1.70179,3.8972a9.52972,9.52972,0,0,0,5.10043,4.87238,13.6946,13.6946,0,0,0,7.17768,1.09762,1.93089,1.93089,0,0,0,1.75547-1.04968c.39488-1.13516-.84342-2.92589-1.46859-3.71507A15.25289,15.25289,0,0,0,760.99341,555.72545Z"/><path class="cls-71" d="M763.28049,572.11175c-2.25268-1.27686-4.58017-2.57779-7.098-2.79016a17.31723,17.31723,0,0,0-5.05451.57567q-1.284.27581-2.56776.5516c2.49226,2.11726,5.04075,4.2686,8.00151,5.40145a9.77553,9.77553,0,0,0,6.99794.1856c.73077-.28533,2.6247-.97035,2.13487-2.13593C765.35138,573.08307,763.94831,572.49027,763.28049,572.11175Z"/><path class="cls-72" d="M771.9634,544.53094a17.99521,17.99521,0,0,1,6.04239-1.29515,6.32344,6.32344,0,0,1,4.11667.71448,12.62327,12.62327,0,0,1-6.01815,5.52948,11.99132,11.99132,0,0,1-4.54732,1.27456,7.0961,7.0961,0,0,1-4.48282-1.23836A9.414,9.414,0,0,1,771.9634,544.53094Z"/><path class="cls-73" d="M772.048,556.88892a16.15925,16.15925,0,0,1,7.88248-.80382,13.6992,13.6992,0,0,1-3.46449,4.836,10.29325,10.29325,0,0,1-3.17367,1.47151c-.97.30613-7.97948,1.963-7.54985-.20793.20242-1.02311,1.91128-2.43821,2.60645-3.05123A12.36586,12.36586,0,0,1,772.048,556.88892Z"/><path class="cls-74" d="M771.66362,567.49717a11.84089,11.84089,0,0,1,8.12017-1.39777,12.62967,12.62967,0,0,1-5.45231,7.37759,10.51633,10.51633,0,0,1-4.40681,1.45746c-.71753.0695-3.83358.31844-4.04512-.69446-.19417-.92973,1.70818-3.09186,2.22791-3.71739A13.26431,13.26431,0,0,1,771.66362,567.49717Z"/><polygon class="cls-75" points="818.71 695.087 861.611 695.087 860.964 697.928 818.063 697.928 818.71 695.087"/><polygon class="cls-76" points="811.023 728.826 853.924 728.826 853.277 731.667 810.376 731.667 811.023 728.826"/><polygon class="cls-76" points="803.336 762.566 846.237 762.566 845.59 765.406 802.689 765.406 803.336 762.566"/><polygon class="cls-76" points="795.649 796.305 838.55 796.305 837.903 799.145 795.002 799.145 795.649 796.305"/><polygon class="cls-76" points="787.962 830.045 830.863 830.045 830.216 832.885 787.315 832.885 787.962 830.045"/><polygon class="cls-76" points="780.275 863.784 823.176 863.784 822.529 866.624 779.628 866.624 780.275 863.784"/><polygon class="cls-75" points="772.588 897.523 815.489 897.523 814.842 900.363 771.941 900.363 772.588 897.523"/><polygon class="cls-77" points="770.33 900.363 817.1 695.087 819.319 695.087 772.55 900.363 770.33 900.363"/><polygon class="cls-75" points="812.359 901.784 859.38 695.087 861.611 695.087 814.591 901.784 812.359 901.784"/><path class="cls-78" d="M859.1734,688.93829c-.3763,2.46459.64788,3.40394,2.46319,5.08416h16.73015c-.54691-6.41551-.99821-11.63637-1.54512-18.05207-1.471-.2836-5.89811-.83924-7.26574-.04178-1.2015.70081-1.44641,3.35947-2.12765,4.64557a19.5744,19.5744,0,0,1-3.71385,4.80788C863.06511,686.01317,859.274,688.27964,859.1734,688.93829Z"/><path class="cls-79" d="M837.47405,395.37078a6.07019,6.07019,0,0,1,1.27339-1.54025q1.84171-1.77812,3.68326-3.55642a17.36319,17.36319,0,0,1,3.4657-2.8175,5.228,5.228,0,0,1,4.16018-.59223,6.17328,6.17328,0,0,1,2.61694,1.96074,13.13622,13.13622,0,0,1,2.94664,9.00158c-.23768,4.72317-2.87148,8.80675-4.39614,13.21878a28.96819,28.96819,0,0,0-1.27046,13.42537c.34517,2.42493,1.12633,4.99078,2.964,6.33157a3.56165,3.56165,0,0,0,2.386.73855,3.47547,3.47547,0,0,0,2.13246-1.08068,4.193,4.193,0,0,0,1.15712-3.42859,2.84321,2.84321,0,0,0-2.25491-2.49616,2.255,2.255,0,0,0-2.33386,2.185,3.68945,3.68945,0,0,1,1.71333-4.72085,4.10632,4.10632,0,0,1,4.67631,1.44975,9.004,9.004,0,0,1,1.74327,5.31058,14.426,14.426,0,0,1-1.47944,7.00466c-1.23246,2.459-3.67088,4.59205-6.10311,3.85851a6.92045,6.92045,0,0,1-1.94947-1.08453c-3.7708-2.69428-7.48175-6.06742-8.97287-10.78866-1.25671-3.97961-.78271-8.47693-2.22052-12.379-1.16985-3.17464-3.47894-5.619-5.723-7.96057a3.65287,3.65287,0,0,1,2.98826-1.57047c.583.01213,1.38673.00885,1.48855-.634a1.25949,1.25949,0,0,0-.25987-.82576,18.62893,18.62893,0,0,0-1.31966-1.8687,3.117,3.117,0,0,1,1.61186.95957C838.39074,401.47247,835.88627,398.46244,837.47405,395.37078Z"/><path class="cls-80" d="M839.37777,398.61916a3.45281,3.45281,0,0,1,2.83158.41028,4.57686,4.57686,0,0,1,1.68531,2.53409,11.33921,11.33921,0,0,1,.36081,3.18774,3.37294,3.37294,0,0,1-.11368,1.03755.53489.53489,0,0,1-.24955.3452.51584.51584,0,0,1-.4451-.09568,41.43371,41.43371,0,0,1-3.83478-2.98558,14.116,14.116,0,0,0-3.92353-2.09185c.01634.00559,1.26618-.94359,1.46636-1.07413A7.83062,7.83062,0,0,1,839.37777,398.61916Z"/><path class="cls-45" d="M824.11776,564.186q.73163,26.82426,2.79153,53.58209,6.63495.002,13.26993.00424,4.39881-29.59959,8.79745-59.1988,6.5354,28.16226,13.0708,56.3247a4.44372,4.44372,0,0,0,.8945,2.10686,3.88135,3.88135,0,0,0,2.4625.91144q4.9754.60041,9.951,1.20063c-3.34754-24.84206-1.77075-50.20665-4.97883-75.06969-1.63284-12.65428-5.32073-26.40464-15.44989-33.19462,1.61067,1.65249.12659,4.85351-2.02772,5.48173-2.1543.628-4.39494-.40489-6.41836-1.41413q-2.821-1.407-5.64216-2.814a11.13367,11.13367,0,0,1-3.94075-2.75184,4.28969,4.28969,0,0,1-.61571-4.68215C825.59531,522.31886,823.55983,543.72847,824.11776,564.186Z"/><path class="cls-81" d="M766.85058,528.7078a2.04512,2.04512,0,0,0,2.56621,1.4717,2.35628,2.35628,0,0,0-.734,2.95747,3.05333,3.05333,0,0,0,2.53525,1.65885,2.9031,2.9031,0,0,0-.91239,3.41376,2.32353,2.32353,0,0,0,2.9702,1.28091,3.56464,3.56464,0,0,0,.513,2.95534,2.172,2.172,0,0,0,2.52975.78437,1.21572,1.21572,0,0,0,.68571-.66923c.25746-.71025-.3371-1.41125-.82021-1.95438-1.929-2.16944-2.81025-5.20565-3.72832-8.089q-1.31208-4.12113-2.88868-8.12865C770.14017,525.84564,766.16247,526.16235,766.85058,528.7078Z"/><path class="cls-81" d="M801.70552,494.04763q3.574,3.48172,7.14827,6.96346a.58248.58248,0,0,0,.41191.22487.60111.60111,0,0,0,.36411-.26376A176.37491,176.37491,0,0,0,824.131,480.68349c.12177-.1983-5.82619-3.24857-6.3659-3.46863-2.87751-1.17309-3.30455.23084-5.1964,2.69331Q807.1372,486.9779,801.70552,494.04763Z"/><path class="cls-82" d="M820.57621,457.78792a33.14764,33.14764,0,0,0-2.2714,5.43091,75.8139,75.8139,0,0,1-6.545,13.59479,18.456,18.456,0,0,0,10.59281,8.87433,1.64624,1.64624,0,0,0,1.141.05082,1.96144,1.96144,0,0,0,.71389-.69773,49.29435,49.29435,0,0,0,4.498-7.61786,15.34968,15.34968,0,0,0,1.81428-6.50312c-.00241-4.14153-2.59614-7.47154-4.12129-11.026-.49188-1.14614-.8049-4.50234-1.65436-5.12383C823.27262,453.694,821.21205,456.70108,820.57621,457.78792Z"/><path class="cls-83" d="M863.91249,453.58343a1.40757,1.40757,0,0,1,.86784.45226,1.79671,1.79671,0,0,1,.247.903q.78787,8.55183,1.57557,17.10366a13.36715,13.36715,0,0,1,.04661,3.05874,14.23369,14.23369,0,0,1-.976,3.156,74.0432,74.0432,0,0,0-3.27738,41.68754,38.54858,38.54858,0,0,1-24.79184-1.9823,4.745,4.745,0,0,1-3.46053,3.14923,10.46045,10.46045,0,0,1-4.63211-.18888,51.27432,51.27432,0,0,1-6.20906-1.70736c3.30936-2.30536,5.36512-6.40242,6.30881-10.63617a57.08844,57.08844,0,0,0,.8558-13.01662c-.043-4.01928-.17353-8.34082-2.32938-11.55493-1.75925-2.62285-4.79326-4.39953-5.363-7.61691a12.595,12.595,0,0,1,.3075-4.35678,61.30142,61.30142,0,0,0,.49583-17.36839,14.95278,14.95278,0,0,1,4.12768-1.70987,6.36768,6.36768,0,0,1,1.71178-.47882,6.61544,6.61544,0,0,1,2.0585.67385c4.98073,2.12285,10.50959,1.56335,15.813.97305a40.07614,40.07614,0,0,1-4.16413-7.34582,14.05172,14.05172,0,0,0,5.22167,3.83214c-.78682-.32731-2.312-5.36815-2.67163-6.28844C851.078,450.14734,856.62319,451.84565,863.91249,453.58343Z"/><path class="cls-81" d="M853.89032,450.45885c-1.37881,8.20008-7.36549,13.048-14.75729,14.12156a2.311,2.311,0,0,1-1.13631-.00424c-7.07982-2.628-10.291-11.62058-10.291-11.62058s6.55062-3.14846,2.61127-9.77479c-1.40152-2.35754-4.88579-2.92685-6.66207-4.943q3.41127.39075,6.82253.78168a3.79209,3.79209,0,0,0,1.93863-.11571c1.12032-.47863,1.65228-1.88584,2.00708-3.1681a45.35676,45.35676,0,0,0,1.612-13.24592c.65785,3.908,3.38953,6.89972,5.9822,9.61845a21.90874,21.90874,0,0,1,3.09026-8.28806c-2.36636,3.73529-1.51864,9.94575-.26349,13.98986C846.23211,442.28226,849.88786,448.83543,853.89032,450.45885Z"/><path class="cls-84" d="M824.50266,447.02468a7.2036,7.2036,0,0,0,2.55572,1.91953,5.70617,5.70617,0,0,0,4.20077-.46015c6.70162-2.94206,10.6322-10.67506,13.31226-18.15431,1.65195-4.61034,3.04623-9.72761,1.73707-14.47388a19.17007,19.17007,0,0,0-3.81243-6.84852,36.83153,36.83153,0,0,0-11.69471-9.60035,5.86925,5.86925,0,0,0-3.38712-.88988,6.03963,6.03963,0,0,0-2.59132,1.25723C808.59478,411.48888,811.85943,433.88079,824.50266,447.02468Z"/><path class="cls-85" d="M832.12063,427.71807a4.91978,4.91978,0,0,1,1.65158.33116c1.69235.78976,2.04922,3.24915,2.15981,5.29767a14.32048,14.32048,0,0,1,1.18447-5.51928c.86234-1.64652,2.62916-2.86543,4.26578-2.33039,1.70868.55873,2.59871,2.8096,2.42759,4.79306a13.89909,13.89909,0,0,1-2.07846,5.44515,18.32058,18.32058,0,0,0,4.24411-7.75167,26.3729,26.3729,0,0,0,1.08953-13.209c-1.44141-6.81771-5.19347-13.29329-10.85129-16.2883-3.14651-1.66559-8.09679-1.50559-11.50058-.69177-3.82652.91472-6.89183,4.176-9.07813,7.80867a25.97763,25.97763,0,0,0-3.75532,10.82312c-.31215,3.27783.06346,9.05029,2.68316,11.16139-.3211-1.70909-.819-4.19986.35687-6.67138C819.87485,425.27255,825.68937,427.11218,832.12063,427.71807Z"/><path class="cls-86" d="M866.2687,509.48379c-1.26135-9.873-4.6328-24.50667-20.08285-29.15764-14.7444-4.43841-27.25845,6.93516-29.08495,13.90131-1.82668-6.96615-14.34076-18.33972-29.08515-13.90131-15.44989,4.651-18.82134,19.28466-20.08268,29.15764-1.545,12.09055,2.403,24.3255,8.0992,34.74238a69.88364,69.88364,0,0,0,5.76326,9.00177c8.73414,11.3986,23.219,21.67589,35.30537,28.19229,12.08616-6.5164,26.5712-16.79369,35.30518-28.19229a69.872,69.872,0,0,0,5.76346-9.00177C863.86573,533.80929,867.81348,521.57434,866.2687,509.48379Z"/><path class="cls-81" d="M872.90824,485.82c1.59053,2.60976,4.284,7.41051,4.08072,10.56147a13.66391,13.66391,0,0,1-1.455,4.66464c-1.98352,4.3974-6.51828,15.93-15.072,23.82588-.78235.72218-1.84336,1.41991-1.793,2.55373a3.21428,3.21428,0,0,0,.5433,1.4382q1.195,2.04872,2.47747,4.03083c3.26155-1.79035,6.00765-4.54527,8.70784-7.26515,6.79793-6.84736,13.79675-14.00142,17.409-23.406a11.07391,11.07391,0,0,0,.91944-4.15463,12.77153,12.77153,0,0,0-1.35732-4.74357q-6.7392-15.50344-13.47823-31.0067a17.06871,17.06871,0,0,0-3.25673-5.50176c-1.71643-1.68638-8.01027-4.96094-9.02293-1.90625-.71133,2.146,1.75839,8.39877,2.50948,10.65234C866.38239,472.35057,868.97783,480.04525,872.90824,485.82Z"/><path class="cls-81" d="M856.9706,525.09246a7.13118,7.13118,0,0,0-3.07391-.02542c-.55586.18926-1.05084.55468-1.59483.78322-1.27906.53754-2.70122.28051-4.06215.41413-.77428.076-1.72225.52638-1.699,1.396.02459.92126,1.07818,1.26762,1.8996,1.33077q1.979.15249,3.965.11379a.91972.91972,0,0,1,.728.19908.8204.8204,0,0,1-.001.95861,1.93464,1.93464,0,0,1-.76259.58876q-3.13187,1.64556-6.38532,2.97845a3.88319,3.88319,0,0,0-1.45673.86138,1.60427,1.60427,0,0,0-.35585,1.68484c.43134.9074,1.63249.68117,2.494.325q3.733-1.54332,7.46593-3.08685c.3641.50405-.00447,1.24183-.38972,1.72585a15.7996,15.7996,0,0,1-4.78224,4.047,4.51038,4.51038,0,0,0-1.32379.9074,1.58,1.58,0,0,0-.34157,1.59261,1.2259,1.2259,0,0,0,1.21319.68175,3.18882,3.18882,0,0,0,1.35061-.51791,30.21285,30.21285,0,0,0,6.142-4.73587c.48277.09145.37631.91067.11609,1.37486a11.87309,11.87309,0,0,1-3.85748,4.16464,4.37957,4.37957,0,0,0-1.60324,1.37332c-.36532.64228-.258,1.68869.38506,1.93686.4709.18136.98428-.13381,1.47908-.07162.47675.05988.9.46612,1.378.41817a1.651,1.651,0,0,0,.90035-.56007c2.50515-2.43609,5.09062-4.99309,6.39411-8.40917a32.91514,32.91514,0,0,1,1.57128-4.26147c1.19718-2.165,3.37212-3.42821,4.73047-5.47057a7.62957,7.62957,0,0,1-3.966,1.66038,20.73073,20.73073,0,0,0,3.87383-8.49388,10.86942,10.86942,0,0,1-3.73331,3.13171q1.00147-1.45265,2.00295-2.90548A10.29388,10.29388,0,0,1,856.9706,525.09246Z"/><path class="cls-87" d="M871.74561,456.90786c2.08086,1.913,3.42408,4.62767,4.66857,7.30039,2.0518,4.40626,3.97237,8.88741,5.89243,13.36741a1.83618,1.83618,0,0,1,.19245.69041,1.71855,1.71855,0,0,1-.18575.6962,11.91464,11.91464,0,0,1-5.3319,5.826,10.11218,10.11218,0,0,1-7.42158.74163,51.119,51.119,0,0,0-4.27128-12.372c-2.63345-5.84235-5.3842-11.61731-8.13461-17.3915a7.11089,7.11089,0,0,0,2.79873-.44956c.29221-.10955.62449-.30228.65355-.64594.03079-.36312-.2953-.623-.58011-.80055-.57134-.35329-1.15042-.69946-1.70782-1.07721,2.17683.465,4.28229.23316,6.44983.75742A15.3411,15.3411,0,0,1,871.74561,456.90786Z"/><path class="cls-45" d="M861.65929,631.39276c.94731,16.06727,7.34314,31.62646,6.06237,47.66466a15.50294,15.50294,0,0,0,9.26713.99538,1.68666,1.68666,0,0,0,1.12014-.58086,2.27644,2.27644,0,0,0,.25764-1.30864q-.07353-17.1155-.14686-34.231a98.96874,98.96874,0,0,0-.51236-11.70106c-.28447-2.303-.73043-4.57646-1.17605-6.84717q-2.919-14.87531-5.8379-29.75063-2.336,6.05289-4.99311,11.94192a43.10908,43.10908,0,0,1-3.20617-12.89841c.05985.66673-1.29059,2.66405-1.53619,3.41473a18.48028,18.48028,0,0,0-.8718,4.53564c-.18368,2.82693.81522,5.22066,1.09728,7.99965C861.88339,617.52149,861.25169,624.48129,861.65929,631.39276Z"/><rect class="cls-77" x="827.66068" y="694.02245" width="61.0667" height="2.4848"/><polygon class="cls-75" points="885.238 696.507 842.336 696.507 842.983 699.348 885.885 699.348 885.238 696.507"/><polygon class="cls-75" points="892.925 730.247 850.023 730.247 850.671 733.087 893.572 733.087 892.925 730.247"/><polygon class="cls-75" points="900.612 763.986 857.71 763.986 858.357 766.826 901.259 766.826 900.612 763.986"/><polygon class="cls-75" points="908.299 797.725 865.397 797.725 866.045 800.566 908.946 800.566 908.299 797.725"/><polygon class="cls-75" points="915.986 831.465 873.085 831.465 873.732 834.305 916.633 834.305 915.986 831.465"/><polygon class="cls-75" points="923.673 865.204 880.771 865.204 881.419 868.044 924.32 868.044 923.673 865.204"/><polygon class="cls-75" points="931.36 898.943 888.459 898.943 889.106 901.784 932.007 901.784 931.36 898.943"/><polygon class="cls-77" points="933.618 901.784 886.848 696.507 884.629 696.507 931.398 901.784 933.618 901.784"/><polygon class="cls-77" points="891.325 901.784 844.556 696.507 842.336 696.507 889.106 901.784 891.325 901.784"/><path class="cls-88" d="M978.13451,892.69884a10.51266,10.51266,0,0,0-3.3957,1.01579,3.88382,3.88382,0,0,0-1.86588,3.42339c.128,2.12266,2.06642,3.19679,3.71766,3.65a30.37631,30.37631,0,0,0,12.0086.7037c2.2329-.29149,4.47956-.78976,6.70782-.45533,2.03872.30593,4.20025,1.28071,6.05856.17636a2.6436,2.6436,0,0,0,1.2101-1.49077,5.11652,5.11652,0,0,0,.12194-1.60821c-.16322-5.42667-.27931-12.57226-.4709-17.99759-.75605.24991-1.595,2.11592-2.37582,2.15539a1.153,1.153,0,0,1-.97018-.28245,2.23587,2.23587,0,0,1-.38611-1.066,13.34524,13.34524,0,0,0-2.6909-5.88432q-1.15419,2.8458-2.30805,5.6914a1.16538,1.16538,0,0,1-.42292.62342c-.4052.21024-.79182-.32576-1.02469-.79265.00361-.68618-.79714-1.65076-1.11912-2.25454.08376,4.12767-.392,5.32464-2.962,8.28152A18.43375,18.43375,0,0,1,978.13451,892.69884Z"/><path class="cls-89" d="M1010.41275,892.895a10.07738,10.07738,0,0,0-3.27119,1.13285,3.94366,3.94366,0,0,0-1.71676,3.48635c.18419,2.11726,2.09789,3.12362,3.71525,3.51946a28.70865,28.70865,0,0,0,11.68871.28707c2.16135-.3687,4.33044-.94475,6.505-.68772,1.98988.23527,4.11753,1.13439,5.89225-.0337a2.65562,2.65562,0,0,0,1.13391-1.532,5.25879,5.25879,0,0,0,.07309-1.61149c-.31129-5.41839-.64735-13.58516-.986-19.00086-.72785.27589-1.46825,3.19851-2.22585,3.26513a1.09353,1.09353,0,0,1-.95074-.24875,2.25679,2.25679,0,0,1-.40518-1.052,13.40989,13.40989,0,0,0-2.78053-5.78825q-1.04119,2.8845-2.08258,5.76861a1.1761,1.1761,0,0,1-.39333.63766c-.38783.2243-.77856-.298-1.018-.75664-.01565-.6858-.82106-1.62227-1.15093-2.21468.19761,4.12266-.231,5.3356-2.645,8.38028A18.03362,18.03362,0,0,1,1010.41275,892.895Z"/><path class="cls-90" d="M1013.22369,789.341a517.157,517.157,0,0,1,8.95568,90.781,4.72815,4.72815,0,0,0,.20208,1.61533,2.7629,2.7629,0,0,0,1.26152,1.32885c2.83176,1.75184,6.65123,2.42685,8.64679-.82288,1.27476-2.07606,1.32584-5.03217,1.31432-7.73877l-.1326-31.32168c-.02305-5.42456-.04661-10.86355-.52628-16.24864-.46385-5.20738-1.35078-10.32678-1.95222-15.508-3.11656-26.85112,1.50781-54.16007,1.682-81.3435a77.44117,77.44117,0,0,0-20.74173-4.41319q.27062,3.81269.54124,7.62576c-4.57329-.04062-9.052-3.50406-11.42211-8.83293,3.8339,10.43382-.95919,23.221,4.88129,32.28992C1011.64021,765.6133,1011.11325,778.22041,1013.22369,789.341Z"/><path class="cls-91" d="M990.48984,881.52012a11.39025,11.39025,0,0,0,6.51536,2.5414,6.0541,6.0541,0,0,0,5.702-3.56008c.41483-1.073.16493-4.036.19658-5.191.94868-34.56679,1.89718-62.01379,2.84586-96.58057.093-3.38566.22326-6.91937,1.80725-9.88415s5.11-5.11689,8.17226-3.91415c-2.03391-10.48485-4.06765-28.08928-6.10154-38.57413a10.33357,10.33357,0,0,1-9.48353,7.94806c-2.11233.04486-4.2116-.60532-6.316-.40951-4.747.44166-7.5263,5.17349-6.26168,9.92534-.39867-2.47055-1.68289-4.20737-2.08156-6.67773,3.56133,22.069,1.82272,46.10843,2.49363,68.46761C988.71993,830.32079,989.74841,856.81052,990.48984,881.52012Z"/><path class="cls-92" d="M989.564,657.24791a31.08967,31.08967,0,0,0-3.22664,7.84525,48.17818,48.17818,0,0,0,9.62608,2.702,19.16473,19.16473,0,0,0,3.16111-7.15329,8.30233,8.30233,0,0,0-.17042-4.98481c-.15479-.35734-.31114-.87948-.00036-1.07086a7.51046,7.51046,0,0,0-2.69295.47786q1.16372-1.17944,2.3273-2.35888A9.56844,9.56844,0,0,0,989.564,657.24791Z"/><path class="cls-93" d="M1045.47338,705.95955a1.54024,1.54024,0,0,1-.07378.77667,1.28572,1.28572,0,0,1-.53333.499q-1.47694.91519-2.95421,1.83a15.7185,15.7185,0,0,1,4.31926,9.35391,5.83151,5.83151,0,0,1-.39247,3.25146,13.39356,13.39356,0,0,0,10.25366-3.11457,5.30813,5.30813,0,0,0,1.96374-2.84926,6.98875,6.98875,0,0,0,.06346-1.79516q-.49248-9.49272-1.688-18.91788a4.03252,4.03252,0,0,0-.67659-2.10051,3.34631,3.34631,0,0,0-.97411-.7193q-2.34171-1.31922-4.68338-2.63863a1.93887,1.93887,0,0,0-1.60137-.36138c-.86148.34155-.93853,1.63882-.96536,2.66135-.027,1.02272-.47812,2.34714-1.386,2.22893a1.56472,1.56472,0,0,1-.83809-.51579,8.76288,8.76288,0,0,1-2.3538-4.52351,29.60435,29.60435,0,0,0,1.59431,8.23108C1045.4125,699.89714,1045.25891,703.16093,1045.47338,705.95955Z"/><path class="cls-94" d="M996.69614,652.70341a3.85614,3.85614,0,0,0-2.00278,1.10494,4.7151,4.7151,0,0,0-.73851,1.79573,109.45754,109.45754,0,0,0-3.18863,15.78637c-2.006,19.00087.99838,47.89647-2.01224,66.73041a4.267,4.267,0,0,0,.04611,2.32462,3.381,3.381,0,0,0,1.48388,1.43224c5.5672,3.42319,13.11913,3.91781,19.418,4.8329s14.94372-.736,20.006-5.03083a7.18778,7.18778,0,0,0,1.76183-2.01714,10.11206,10.11206,0,0,0,.83089-4.40145c.49031-12.55378,2.22273-32.67,9.07553-42.62247a16.276,16.276,0,0,0,2.62571-4.58955,14.2683,14.2683,0,0,0,.36754-3.91492c.01049-7.40589,2.27159-15.27616,2.28191-22.68205-13.59707-8.29365-16.95854-11.36606-25.22937-15.43327a1.10193,1.10193,0,0,0-.98617-.14017c-.40262.21718-.45748.81441-.567,1.2992a3.79593,3.79593,0,0,1-3.66073,2.7815,10.11853,10.11853,0,0,1-4.54423-1.41414,17.47213,17.47213,0,0,0,3.22509-4.78151c0,.485-6.46789,4.84215-7.43273,5.41859C1004.311,651.06113,1000.12555,651.64892,996.69614,652.70341Z"/><path class="cls-93" d="M1006.42163,649.98257a28.90511,28.90511,0,0,0,7.58479,11.84738,3.762,3.762,0,0,0,1.843,1.11052,3.64027,3.64027,0,0,0,1.95875-.42742,46.87764,46.87764,0,0,0,14.58152-10.01584c-2.51461-3.67618-3.59623-8.37932-3.77372-13.00526a76.26105,76.26105,0,0,1,1.147-13.80484c-.00688.04736-9.94133.23989-10.94144.568-3.0371.99673-3.59314,4.09147-4.54474,7.20393C1012.522,639.19911,1011.80033,646.92056,1006.42163,649.98257Z"/><path class="cls-95" d="M1008.00167,596.92685q-1.16349,4.69469-2.32681,9.38954c2.57877-3.88527,6.36384-6.61074,9.44259-10.0453a.7508.7508,0,0,0,.2387-.4432.7272.7272,0,0,0-.27137-.51079c-1.02008-1.02253-2.94269-2.23258-4.41354-1.9848C1009.18373,593.583,1008.34323,595.54833,1008.00167,596.92685Z"/><path class="cls-84" d="M1010.524,598.54508a34.42079,34.42079,0,0,0-7.2838,15.4685c-1.30933,7.22491-.70342,15.59172,2.26954,22.17358a3.53343,3.53343,0,0,0,.97275,1.42126,3.03388,3.03388,0,0,0,1.20631.4667,23.8852,23.8852,0,0,0,19.31425-4.36275,29.47329,29.47329,0,0,0,10.89861-18.32624c.86371-4.92128.4907-10.28846-1.90183-14.533C1030.83751,591.69425,1016.8514,590.7909,1010.524,598.54508Z"/><path class="cls-96" d="M1011.8079,597.13094a1.88584,1.88584,0,0,1-1.60171-.30921c-.54176-.53889-.45643-1.597-1.01352-2.11591q.558.31421,1.116.62861a15.61477,15.61477,0,0,1-3.038-10.55723,12.87922,12.87922,0,0,0,5.10507,4.233,22.21678,22.21678,0,0,1,2.40041-10.29674c.7404,3.03178,1.63473,6.315,3.94726,8.09727a7.62122,7.62122,0,0,1,6.33753-6.39318,7.6877,7.6877,0,0,0,1.5226,5.22336c.25473.54525.95177.49538,1.49507.40239a12.582,12.582,0,0,1,6.22058.51387,8.90271,8.90271,0,0,0-.96484,3.99732,7.64426,7.64426,0,0,0,2.63259,4.6165q1.39671,1.396,2.90915,2.63691a.85339.85339,0,0,1,.3653.505,1.27242,1.27242,0,0,1-.23508.69177c-.598,1.23836.47019,2.60282,1.26941,3.68946,1.93364,2.62978,2.60318,6.11267,3.21255,9.4498a2.72088,2.72088,0,0,1,.0287,1.26531,2.38781,2.38781,0,0,1-.79182,1.03312l-4.56934,4.06914a19.80629,19.80629,0,0,0-13.57454-21.3663C1020.48427,595.81942,1016.05218,596.66309,1011.8079,597.13094Z"/><path class="cls-97" d="M1030.04121,600.62537a5.04988,5.04988,0,0,1,1.02194,3.17676,6.90206,6.90206,0,0,1-.47829,1.95881,26.81469,26.81469,0,0,1-4.4185,7.79673,1.2246,1.2246,0,0,0-.36909.77416,1.15967,1.15967,0,0,0,.40692.72623q1.14338,1.18146,2.37084,2.25453a14.67084,14.67084,0,0,1,2.83416-4.08261,3.44217,3.44217,0,0,1,2.79667-1.32635,3.39189,3.39189,0,0,1,2.2544,2.44149,10.26284,10.26284,0,0,1-.30528,6.90146,17.76921,17.76921,0,0,1-3.74294,5.65617,32.6407,32.6407,0,0,0,6.88032-5.47539,15.77549,15.77549,0,0,0,3.22474-3.81519,2.33719,2.33719,0,0,0,.28636-.76126,2.75912,2.75912,0,0,0-.06931-.91048,40.84765,40.84765,0,0,0-4.24411-12.3033,22.06072,22.06072,0,0,0-8.6031-8.84852,29.52547,29.52547,0,0,0-8.33309-2.55643,31.31308,31.31308,0,0,1,6.74221,6.057,17.31992,17.31992,0,0,0-6.93378-2.58934c1.68183.23469,3.57592,1.39912,5.09508,2.1985A9.17071,9.17071,0,0,1,1030.04121,600.62537Z"/><ellipse class="cls-98" cx="978.92655" cy="707.54678" rx="50.27928" ry="42.15399" transform="translate(110.83357 1547.38855) rotate(-79.91093)"/><path class="cls-45" d="M963.29724,692.91444c-.09012,1-.06105,2.18849.67092,2.77032a1.71028,1.71028,0,0,0,2.26334-.401A6.31134,6.31134,0,0,0,967.391,692.849c.60987-1.95669,5.7841-14.53069.90414-13.27885C964.8785,680.44653,963.56778,689.90942,963.29724,692.91444Z"/><path class="cls-45" d="M983.35068,698.50765c-.09356,1.03966-.06346,2.27552.69758,2.88045a1.77857,1.77857,0,0,0,2.35329-.417,6.56313,6.56313,0,0,0,1.20563-2.53139c.63411-2.03448,6.01384-15.10809.94009-13.80658C984.9947,685.54436,983.63205,695.38326,983.35068,698.50765Z"/><path class="cls-45" d="M962.97889,724.21455a21.99779,21.99779,0,0,0,9.03823,3.39452c4.23861.51347,8.57593,1.18464,18.2082-3.94111,1.41511-.7528,4.36055-3.814,7.12041-7.36989a1.02551,1.02551,0,0,1,.56859,1.07067,2.897,2.897,0,0,1-.47019,1.22911A26.87347,26.87347,0,0,1,979.433,730.95737a24.343,24.343,0,0,1-5.29461.52657,22.21284,22.21284,0,0,1-14.97055-6.67119,31.25139,31.25139,0,0,1-8.22663-15.62022,4.934,4.934,0,0,1-.12675-2.01252c.09115-.44013.67195-1.5674,1.2328-1.33829.49188.20081.15134.816.2683,1.27995C954.72544,716.68313,960.71607,722.69375,962.97889,724.21455Z"/><path class="cls-93" d="M1022.73506,700.47589a13.02916,13.02916,0,0,1-2.19885-3.96151c-.22719-.97575-.27827-2.227-1.10639-2.62324-.6747-.32287-1.48631.23971-1.76131,1.00117a4.02809,4.02809,0,0,0,.0767,2.41279,11.02765,11.02765,0,0,0,1.11052,2.61842c.45576.774.97912,1.89373.34812,2.49385a22.10623,22.10623,0,0,0-7.51359-5.78613c-.61949-.28745-1.40083-.51656-1.90372-.01983a1.56835,1.56835,0,0,0-.20518,1.64422,3.91552,3.91552,0,0,0,1.0388,1.32615,53.467,53.467,0,0,0,4.37327,3.68639c.90981.68675,1.95635,1.5955,1.85229,2.81826q-3.47885-1.34463-6.95753-2.68946a3.81677,3.81677,0,0,0-2.18148-.38121,1.60354,1.60354,0,0,0-1.22884,1.77032,2.222,2.222,0,0,0,1.1229,1.29284,35.95329,35.95329,0,0,0,7.26918,3.60168.86277.86277,0,0,1-.45611.97613,1.81372,1.81372,0,0,1-1.068.08067,16.80282,16.80282,0,0,1-4.90625-1.47171,3.93307,3.93307,0,0,0-1.35543-.47266,1.21538,1.21538,0,0,0-1.21371.65383c-.41122.91048.51132,1.84541,1.32671,2.30094a20.83087,20.83087,0,0,0,7.1094,2.43474c.02167.53428-.59232.767-1.06907.80267a11.94648,11.94648,0,0,1-5.58853-.945.64714.64714,0,0,0-.50132-.07258.62791.62791,0,0,0-.29549.49153c-.18936,1.12939.78512,2.05488,1.69286,2.59147,3.999,2.36312,8.79608,2.52215,13.23195,1.53832,1.61392-.35811,3.28064-.85927,4.87753-.41548q1.45244-4.06077,2.9052-8.12153a1.66637,1.66637,0,0,0,.14189-.74721,1.53642,1.53642,0,0,0-.72991-.95765C1026.97039,706.83884,1023.556,701.74351,1022.73506,700.47589Z"/><path class="cls-93" d="M1033.60116,708.98787a45.44855,45.44855,0,0,0,6.67565-1.26454,30.34243,30.34243,0,0,1,7.90381-.54891c2.28294.14151,4.86308.76608,6.0049,2.98346a6.8858,6.8858,0,0,1-.1842,5.73723,9.70718,9.70718,0,0,1-6.92879,5.73626,16.279,16.279,0,0,1-5.598-.28033q-11.01907-1.88208-21.8808-4.744,3.02017-2.21245,5.9196-4.62247a3.89118,3.89118,0,0,0,1.64437-2.3483,11.58647,11.58647,0,0,1-2.6737-2.34887l2.89659,1.80035a17.06971,17.06971,0,0,1-2.8247-3.97268C1025.944,707.80265,1031.18114,709.108,1033.60116,708.98787Z"/><path class="cls-99" d="M1052.67858,664.17036c1.37073,1.46111,1.75426,3.71026,2.01017,5.80961.92563,7.58976,1.12978,15.3372,2.99222,22.70824a3.75641,3.75641,0,0,1,.176,1.35061,2.71616,2.71616,0,0,1-.61038,1.31036,8.51317,8.51317,0,0,1-4.95184,2.82289,17.89183,17.89183,0,0,1-8.66261-.11494q-1.78857-11.92642-3.5768-23.85322c-.58407-3.89432-1.78126-11.92536,2.54215-13.97,1.45206-.68656,2.87852.3506,4.21279.93416C1048.75006,662.01632,1051.12434,662.51344,1052.67858,664.17036Z"/><path class="cls-100" d="M843.89241,692.137c-6.89992,19.49239-15.97289,38.02137-21.84313,57.94041-9.86325,33.47206-10.27258,69.39253-10.583,104.63376-.18317,19.41345,1.24191,27.72231,2.42708,47.07262H663.037c3.72541-29.93372,6.73069-41.24375,11.21781-67.78143-22.94384,2.38526-41.78133,3.66482-64.81,4.65982-6.23691.28437-15.70511,2.259-21.02482-2.7168a14.62042,14.62042,0,0,1-5.70048-6.35005c-4.967-10.40976,2.32817-22.478,4.76918-33.97765,2.79391-13.12655-1.53791-27.83283-10.73815-36.53637.87489-4.01235,1.7639-8.00871,2.65289-12.02105q-7.493-4.47807-14.97142-8.97213a39.82995,39.82995,0,0,0,2.87854-12.60538,90.5155,90.5155,0,0,1-29.70274-21.89344,10.67045,10.67045,0,0,1-3.03384-5.21277c-.6066-3.728,2.21536-6.93458,4.75542-9.44614a348.54939,348.54939,0,0,0,28.41852-31.89254,32.99822,32.99822,0,0,0,5.2774-8.356c2.62469-6.74493,1.15713-14.48525.31044-21.79872a121.66894,121.66894,0,0,1,3.81-46.7409h281.8171c.07017.88468.12677,1.76917.18317,2.65385A279.64988,279.64988,0,0,1,843.89241,692.137Z"/><path class="cls-101" d="M598.02666,739.20481c3.51386-1.11706,7.21879-2.36235,9.68181-5.3822s2.96693-8.425.0552-10.89416a9.147,9.147,0,0,1,6.16847,2.65423c2.44117,2.386,3.51834,7.05991,1.1867,9.57937a8.10407,8.10407,0,0,1-4.014,1.98846c-9.95268,3.01753-20.06754,5.77765-30.12875,8.29827C586.13742,742.19289,592.34836,741.00979,598.02666,739.20481Z"/><path class="cls-102" d="M700.50356,810.21518c5.85476-1.79189,11.76834-3.67927,17.00309-7.11787,10.83085-7.11459,17.47934-19.91712,23.64934-32.16111-1.46946,12.49371-6.78848,24.034-13.082,34.48207a63.45022,63.45022,0,0,1-9.60028,12.84219c-3.98785,3.89221-8.68514,6.7355-13.12514,9.95616-15.61551,11.32716-28.27387,27.699-36.04852,46.62326a238.85867,238.85867,0,0,1,8.42939-43.04046c-.53625,1.825-66.40928,6.11131-79.03515,5.68659,3.62445-5.05913,13.08645-4.99348,18.35973-6.0651q14.03718-2.85216,27.99629-6.16118Q672.96475,818.64226,700.50356,810.21518Z"/><path class="cls-102" d="M700.31248,818.768c-9.77656,10.24438-19.75608,20.78775-25.74843,34.19405q3.27687-11.9059,6.55389-23.81144c-5.1135,3.08781-11.41766,1.25858-16.929,2.4307,1.90235-1.62014,5.68587-1.81537,8.038-2.49038q4.81158-1.381,9.565-3.001,4.75173-1.61928,9.43638-3.47383C693.64577,821.65882,698.448,820.72158,700.31248,818.768Z"/><path class="cls-102" d="M806.27073,739.95433q5.42273-1.36658,10.84546-2.733a265.3684,265.3684,0,0,0-7.54539,65.04576c.49808-14.75075,3.35255-29.25891,6.19581-43.67311a151.16783,151.16783,0,0,1,4.70866-19.35666c4.7702-14.059,15.94106-26.9805,18.37983-41.7813-5.02217,5.08589-7.985,13.46348-12.10887,19.53706A114.93112,114.93112,0,0,1,806.27073,739.95433Z"/><path class="cls-102" d="M814.92371,736.1299a17.28907,17.28907,0,0,1,3.77957-1.53428.48806.48806,0,0,1,.5053.05776.635.635,0,0,1,.111.40624,12.48259,12.48259,0,0,1-.45441,3.81635c1.41081-4.28362,5.3285-8.40724,5.94249-12.85336-1.66655-.41144-3.59623,2.92339-4.63522,4.11053C818.71205,731.80142,816.77738,735.11026,814.92371,736.1299Z"/><path class="cls-102" d="M577.02214,716.74763a37.0709,37.0709,0,0,1-6.9056,6.08917,3.47052,3.47052,0,0,1-1.95652.78611,3.64129,3.64129,0,0,1-1.69923-.67656c-9.5535-5.816-20.01956-11.72762-27.632-20.62332,6.32067.48884,11.38722,4.39028,17.34363,6.77747,3.44316,1.37987,6.94377,2.56932,10.43561,3.78285C568.11978,713.40857,575.89648,717.45653,577.02214,716.74763Z"/><path class="cls-102" d="M572.40654,717.73532c-1.08421,1.93377-2.87148,3.831-4.87582,3.40952a5.50313,5.50313,0,0,1-1.53257-.66962,142.11853,142.11853,0,0,1-15.03316-9.81946c-.51441-.38409-1.90182-1.37794-.581-1.7037.66576-.16423,2.25682,1.12438,2.89833,1.422a51.51,51.51,0,0,0,6.50228,2.377C560.793,713.06336,572.69547,717.21991,572.40654,717.73532Z"/><path class="cls-101" d="M592.21989,648.22053a71.53314,71.53314,0,0,0,45.88787-13.66314c-9.85775,5.62344-21.2436,6.58128-32.28719,7.33292a3.287,3.287,0,0,1-2.25526-.39469,3.90835,3.90835,0,0,1-1.11928-1.84368c-1.1874-3.22315-1.21215-7.97924-2.72994-10.78808-1.46378,2.0957-1.14492,5.87836-1.29763,8.41707A12.22714,12.22714,0,0,1,596.468,643.692C595.8875,644.56629,593.23908,648.28117,592.21989,648.22053Z"/></g></g></svg>